<?xml version="1.0" encoding="UTF-8"?>
<svg version="1.1" xmlns="http://www.w3.org/2000/svg" width="512" height="512">
<path d="M0 0 C1.21165087 -0.00644889 2.42330174 -0.01289778 3.6716693 -0.0195421 C5.00768183 -0.01660014 6.34369395 -0.01346472 7.67970562 -0.01015663 C9.10565309 -0.01389455 10.53159851 -0.01849663 11.95754069 -0.02388728 C15.87157716 -0.03611521 19.78552815 -0.03585706 23.69957936 -0.03349853 C27.92260277 -0.03309031 32.14559879 -0.04412997 36.36860943 -0.05361366 C44.64062338 -0.07022339 52.91260883 -0.07572319 61.18463806 -0.07683842 C67.90877408 -0.07778889 74.63290069 -0.08189911 81.35703373 -0.08823967 C100.42278347 -0.10585184 119.4885107 -0.11507855 138.55426864 -0.11357872 C140.09588394 -0.11345885 140.09588394 -0.11345885 141.668643 -0.11333656 C143.21214136 -0.11321392 143.21214136 -0.11321392 144.78682151 -0.1130888 C161.46403704 -0.11227586 178.14116226 -0.13141563 194.81835166 -0.1596133 C211.94392945 -0.18834054 229.06946318 -0.20215369 246.19506568 -0.20042574 C255.80917403 -0.1997618 265.42318771 -0.20525616 275.03727436 -0.22678185 C283.222744 -0.2449915 291.40807604 -0.24934273 299.59355716 -0.235763 C303.76888457 -0.22923231 307.94394798 -0.22911967 312.1192503 -0.2464695 C315.94446762 -0.26220096 319.76921163 -0.25933617 323.59441742 -0.24190123 C325.62748764 -0.23738157 327.66057256 -0.25248804 329.69358569 -0.26838052 C336.99837316 -0.21328591 342.52730575 0.55855697 348.88324261 4.25726891 C349.68117229 4.71488609 350.47910198 5.17250328 351.30121136 5.64398766 C359.04029242 11.33298102 363.61136837 18.63061981 365.42230511 28.06586266 C366.25476098 34.06395532 365.98692066 40.1542657 365.94574261 46.19476891 C365.94123089 47.45096031 365.93671917 48.70715172 365.93207073 50.00140953 C365.92033942 53.08674553 365.90392361 56.17198207 365.88324261 59.25726891 C366.52245647 59.24421715 367.16167034 59.23116539 367.82025433 59.21771812 C393.52182847 58.91568508 417.51706663 71.08806221 435.69574261 88.69476891 C454.0988759 107.78242504 464.00629742 133.29587723 463.91449261 159.72992516 C463.21661487 188.57346142 451.78722972 212.32329187 431.55121136 232.59320641 C418.78885774 244.67517606 402.639606 252.77089226 385.57074261 256.69476891 C384.86667278 256.85880211 384.16260296 257.02283531 383.43719769 257.19183922 C379.28440106 258.05313145 375.34904119 258.32852018 371.10516644 258.29657555 C370.12437618 258.29090065 369.14358593 258.28522575 368.13307476 258.27937889 C367.39063015 258.2720826 366.64818554 258.2647863 365.88324261 258.25726891 C365.88600799 259.95963487 365.88600799 259.95963487 365.88882923 261.69639206 C365.93324575 289.32250828 365.96610242 316.94861986 365.98686695 344.57476425 C365.99717564 357.93460397 366.01122824 371.29441726 366.03412151 384.65424156 C366.0540678 396.29985051 366.06696201 407.94544236 366.0714196 419.59106791 C366.07402486 425.75622462 366.08014001 431.92133244 366.09470272 438.08647346 C366.10830613 443.89269102 366.11245964 449.69883966 366.10945797 455.50507164 C366.11000689 457.6326758 366.11396783 459.76028234 366.12165356 461.8878727 C366.13165796 464.80091391 366.12919148 467.71369759 366.12375164 470.62674522 C366.13249016 471.87873838 366.13249016 471.87873838 366.14140522 473.15602434 C366.08303001 484.78422838 363.49828957 494.9046412 355.58636761 503.65570641 C349.41321512 509.46073513 342.25631885 512.50308001 333.76648521 512.51453781 C332.55483434 512.5209867 331.34318347 512.5274356 330.09481591 512.53407991 C328.75880338 512.53113795 327.42279127 512.52800254 326.08677959 512.52469444 C324.66083212 512.52843236 323.2348867 512.53303445 321.80894452 512.53842509 C317.89490805 512.55065302 313.98095707 512.55039487 310.06690586 512.54803634 C305.84388245 512.54762812 301.62088643 512.55866778 297.39787579 512.56815147 C289.12586183 512.5847612 280.85387639 512.590261 272.58184715 512.59137623 C265.85771114 512.5923267 259.13358453 512.59643692 252.40945148 512.60277748 C233.34370174 512.62038965 214.27797451 512.62961636 195.21221658 512.62811653 C194.18447304 512.62803662 193.1567295 512.62795671 192.09784222 512.62787437 C191.06884331 512.62779261 190.0398444 512.62771085 188.97966371 512.62762661 C172.30244818 512.62681367 155.62532296 512.64595344 138.94813355 512.67415111 C121.82255577 512.70287835 104.69702203 512.7166915 87.57141954 512.71496356 C77.95731118 512.71429961 68.34329751 512.71979397 58.72921085 512.74131966 C50.54374122 512.75952931 42.35840918 512.76388054 34.17292806 512.75030081 C29.99760064 512.74377012 25.82253723 512.74365748 21.64723492 512.76100731 C17.82201759 512.77673878 13.99727358 512.77387398 10.1720678 512.75643905 C8.13899757 512.75191938 6.10591266 512.76702586 4.07289952 512.78291833 C-3.23188795 512.72782372 -8.76082054 511.95598085 -15.11675739 508.25726891 C-15.91468708 507.79965172 -16.71261677 507.34203453 -17.53472614 506.87055016 C-25.36682662 501.11317828 -30.04087071 493.67384983 -31.65168649 484.06695539 C-32.12796179 480.1654867 -32.25694886 476.34930801 -32.24539185 472.42728519 C-32.24714488 471.66581284 -32.24889792 470.90434048 -32.25070408 470.11979321 C-32.25535121 467.57149914 -32.2529019 465.02326246 -32.25047016 462.47496605 C-32.25233878 460.62814055 -32.25463969 458.78131545 -32.25733548 456.93449098 C-32.26345357 451.86170298 -32.26331988 446.78893147 -32.26214111 441.71614063 C-32.26193711 436.24430771 -32.26745581 430.77248009 -32.27219868 425.30064964 C-32.28050573 414.58131974 -32.28325354 403.86199534 -32.28381106 393.14266249 C-32.28428617 384.43009898 -32.28634069 375.7175373 -32.28951168 367.00497437 C-32.29831824 342.30577455 -32.3029371 317.60657852 -32.30218121 292.90737721 C-32.30216126 292.24182859 -32.30214132 291.57627997 -32.30212077 290.89056321 C-32.30208033 289.54466213 -32.30203853 288.19876104 -32.30199538 286.85285995 C-32.30138263 265.91303034 -32.30888948 244.97321693 -32.32256794 224.03339195 C-32.33793276 200.50233566 -32.34652126 176.97128743 -32.34560472 153.44022542 C-32.34527262 140.98293816 -32.34802539 128.52566916 -32.35878277 116.06838608 C-32.36788243 105.46279055 -32.37006739 94.85722157 -32.36327334 84.25162383 C-32.36000551 78.84083078 -32.35996101 73.43008868 -32.36862659 68.01930046 C-32.37648075 63.06420951 -32.37507121 58.10921 -32.36634246 53.15412132 C-32.3648051 51.36345075 -32.36663254 49.5727734 -32.37220254 47.78211083 C-32.41453312 33.20584295 -32.05462183 20.17907351 -21.81988239 8.85883141 C-15.6467299 3.05380269 -8.48983364 0.0114578 0 0 Z " fill="#424C59" transform="translate(40.1167573928833,-0.25726890563964844)"/>
<path d="M0 0 C1.21165087 -0.00644889 2.42330174 -0.01289778 3.6716693 -0.0195421 C5.00768183 -0.01660014 6.34369395 -0.01346472 7.67970562 -0.01015663 C9.10565309 -0.01389455 10.53159851 -0.01849663 11.95754069 -0.02388728 C15.87157716 -0.03611521 19.78552815 -0.03585706 23.69957936 -0.03349853 C27.92260277 -0.03309031 32.14559879 -0.04412997 36.36860943 -0.05361366 C44.64062338 -0.07022339 52.91260883 -0.07572319 61.18463806 -0.07683842 C67.90877408 -0.07778889 74.63290069 -0.08189911 81.35703373 -0.08823967 C100.42278347 -0.10585184 119.4885107 -0.11507855 138.55426864 -0.11357872 C140.09588394 -0.11345885 140.09588394 -0.11345885 141.668643 -0.11333656 C143.21214136 -0.11321392 143.21214136 -0.11321392 144.78682151 -0.1130888 C161.46403704 -0.11227586 178.14116226 -0.13141563 194.81835166 -0.1596133 C211.94392945 -0.18834054 229.06946318 -0.20215369 246.19506568 -0.20042574 C255.80917403 -0.1997618 265.42318771 -0.20525616 275.03727436 -0.22678185 C283.222744 -0.2449915 291.40807604 -0.24934273 299.59355716 -0.235763 C303.76888457 -0.22923231 307.94394798 -0.22911967 312.1192503 -0.2464695 C315.94446762 -0.26220096 319.76921163 -0.25933617 323.59441742 -0.24190123 C325.62748764 -0.23738157 327.66057256 -0.25248804 329.69358569 -0.26838052 C336.99837316 -0.21328591 342.52730575 0.55855697 348.88324261 4.25726891 C349.68117229 4.71488609 350.47910198 5.17250328 351.30121136 5.64398766 C359.04029242 11.33298102 363.61136837 18.63061981 365.42230511 28.06586266 C366.25476098 34.06395532 365.98692066 40.1542657 365.94574261 46.19476891 C365.94123089 47.45096031 365.93671917 48.70715172 365.93207073 50.00140953 C365.92033942 53.08674553 365.90392361 56.17198207 365.88324261 59.25726891 C366.52245647 59.24421715 367.16167034 59.23116539 367.82025433 59.21771812 C393.52182847 58.91568508 417.51706663 71.08806221 435.69574261 88.69476891 C454.0988759 107.78242504 464.00629742 133.29587723 463.91449261 159.72992516 C463.21661487 188.57346142 451.78722972 212.32329187 431.55121136 232.59320641 C414.29439197 248.93003381 390.1434649 259.05160915 366.28021526 258.59174156 C364.14504308 258.51028413 362.01565065 258.39268284 359.88324261 258.25726891 C359.14573772 258.21327965 358.40823284 258.16929039 357.64837933 258.12396812 C335.53949533 256.64433332 315.61827038 249.01596959 298.88324261 234.25726891 C298.29929729 233.81512047 297.71535198 233.37297203 297.11371136 232.91742516 C280.43505626 220.06665812 269.43419824 197.56863659 265.50824261 177.25726891 C261.91349269 147.83220258 267.20195605 120.24931597 285.61371136 96.68305016 C292.12568118 88.63604962 292.12568118 88.63604962 294.88324261 87.25726891 C187.30324261 86.92726891 79.72324261 86.59726891 -31.11675739 86.25726891 C-31.11675739 18.62945841 -31.11675739 18.62945841 -22.04253864 9.01117516 C-15.6663967 3.20410065 -8.70184709 0.01174393 0 0 Z " fill="#E9E9E9" transform="translate(40.1167573928833,-0.25726890563964844)"/>
<path d="M0 0 C0.33 0 0.66 0 1 0 C1 8.91 1 17.82 1 27 C4.3 27 7.6 27 11 27 C37.34511246 30.17478099 61.06372063 43.97345593 77.92578125 64.32421875 C94.48863157 86.75069883 101.59241758 113.37115329 98 141 C93.86146889 167.76210015 80.21444306 190.12626431 59 207 C39.85985426 220.53445662 18.44667182 227.48892989 -5 226 C-5.73750488 225.95601074 -6.47500977 225.91202148 -7.23486328 225.86669922 C-29.34374728 224.38706442 -49.26497223 216.75870068 -66 202 C-66.58394531 201.55785156 -67.16789062 201.11570313 -67.76953125 200.66015625 C-84.44818634 187.80938921 -95.44904437 165.31136768 -99.375 145 C-102.98590957 115.44265777 -97.49283849 88.61903099 -79.5859375 64.70703125 C-74.08887629 57.8226165 -68.04448775 52.26300602 -61 47 C-60.21109375 46.38511719 -59.4221875 45.77023438 -58.609375 45.13671875 C-44.200071 34.37745368 -26.55403398 28.29871233 -8.6875 27.4375 C-5.820625 27.293125 -2.95375 27.14875 0 27 C0 18.09 0 9.18 0 0 Z " fill="#45B7C3" transform="translate(405,32)"/>
<path d="M0 0 C0.73971841 -0.00623996 1.47943683 -0.01247993 2.24157095 -0.01890898 C4.72147035 -0.03487023 7.20039108 -0.02222315 9.68029785 -0.00964355 C11.45763218 -0.01506331 13.23496202 -0.02218514 15.01228333 -0.03088379 C19.84078523 -0.04913761 24.66894572 -0.04204113 29.49745369 -0.02936745 C34.54714004 -0.01925044 39.59679689 -0.02862951 44.64648438 -0.03491211 C53.12704728 -0.0421923 61.60747092 -0.03259104 70.0880127 -0.0135498 C79.89699702 0.00821963 89.7056488 0.00116853 99.51462507 -0.02085543 C107.93171269 -0.03899882 116.34870011 -0.04157294 124.76580095 -0.03110075 C129.79502852 -0.02485998 134.8240997 -0.02404621 139.85331726 -0.0372467 C144.58121011 -0.04878914 149.30867361 -0.04080893 154.03652 -0.01766968 C155.77317275 -0.01237398 157.50986154 -0.01391105 159.24650002 -0.02272034 C161.61444917 -0.03362589 163.98101626 -0.01997431 166.34887695 0 C167.38369965 -0.01338433 167.38369965 -0.01338433 168.43942785 -0.02703905 C171.79095745 0.02792983 173.43037457 0.31639691 176.10128021 2.41248322 C178.7348532 5.92041005 178.15185437 8.21119156 177.67443848 12.50793457 C175.86280581 15.18224946 174.79682771 15.46713816 171.67443848 16.50793457 C169.32947829 16.61102361 166.98164854 16.65173252 164.63444519 16.66183472 C163.91332654 16.66621697 163.1922079 16.67059922 162.44923717 16.67511427 C160.0264989 16.68849705 157.603797 16.69467992 155.18103027 16.70080566 C153.44650101 16.70870694 151.7119734 16.71697591 149.97744751 16.72558594 C144.27620004 16.75179961 138.57494524 16.76711135 132.87365723 16.78137207 C130.91151233 16.78673172 128.94936747 16.79210923 126.98722267 16.79750443 C118.82652644 16.81913078 110.66583219 16.83786836 102.50511456 16.84912682 C90.8061446 16.86537255 79.10750642 16.89856827 67.40866154 16.95552766 C59.18437145 16.99420675 50.96017018 17.01375701 42.7357915 17.01904738 C37.82264403 17.02270317 32.90985048 17.03474888 27.99680138 17.06715012 C23.37479024 17.09719557 18.75334784 17.10355524 14.13125992 17.09176636 C12.43573323 17.09154534 10.74018041 17.09987397 9.04474449 17.1174202 C6.7276056 17.14009366 4.41253236 17.13182781 2.09538269 17.11593628 C0.79955104 17.11924643 -0.49628061 17.12255657 -1.83137989 17.12596703 C-6.47125096 16.30529105 -8.08254187 14.88872512 -11.32556152 11.50793457 C-11.95056152 7.94543457 -11.95056152 7.94543457 -11.32556152 4.50793457 C-8.17126613 0.15296964 -5.05696082 -0.06540641 0 0 Z " fill="#F6C23D" transform="translate(95.3255615234375,139.4920654296875)"/>
<path d="M0 0 C0.72438749 -0.00638882 1.44877498 -0.01277764 2.1951136 -0.01936007 C4.61143484 -0.03456572 7.0261046 -0.0141804 9.44236755 0.00622559 C11.17896568 0.00272306 12.91556059 -0.002937 14.65214539 -0.0105896 C19.36086685 -0.02482733 24.06900365 -0.00778667 28.77766919 0.01569557 C33.70674746 0.03581272 38.63580166 0.02992462 43.56491089 0.02758789 C51.84105566 0.02764145 60.11697202 0.04739095 68.39305115 0.07946777 C77.96117505 0.1163721 87.52899989 0.12514149 97.09718567 0.11817026 C106.30334611 0.11186543 115.509404 0.12261842 124.71554375 0.14213562 C128.63290302 0.15031 132.55020989 0.1530191 136.46757698 0.15144348 C141.07973122 0.15056463 145.69160118 0.16478098 150.30368042 0.19067001 C151.99636901 0.19783262 153.68908785 0.19991498 155.38178825 0.19655228 C157.69217124 0.19283792 160.0017244 0.20758251 162.31201172 0.22705078 C164.2512972 0.23264385 164.2512972 0.23264385 166.22976017 0.23834991 C170.12547973 0.68217939 172.80077876 1.82972468 175.59251404 4.62145996 C176.18339253 11.8301776 176.18339253 11.8301776 174.02417088 14.72172642 C170.81581126 17.22825953 168.16599034 17.17699045 164.26022339 17.12266541 C163.51979941 17.1281998 162.77937543 17.1337342 162.01651436 17.1394363 C159.53426381 17.15305506 157.05301664 17.1380678 154.57078552 17.12316895 C152.79183016 17.12695166 151.01287775 17.13245131 149.2339325 17.13954163 C144.40135248 17.15351874 139.5691276 17.14231111 134.73656726 17.12583041 C129.68375022 17.11199607 124.63095413 17.11843806 119.578125 17.1219635 C111.09336105 17.12466665 102.60873849 17.11118011 94.12400818 17.0880127 C84.30709411 17.06139375 74.49041634 17.05965819 64.67347854 17.07140106 C55.23773317 17.0821702 45.80207348 17.07599912 36.36633492 17.06184578 C32.3468378 17.05607933 28.32740325 17.0561738 24.3079052 17.06091118 C19.57760872 17.06567422 14.84757189 17.05560734 10.11732483 17.03395653 C8.37864114 17.02837959 6.63993254 17.02793164 4.90124702 17.03290939 C2.53314768 17.03884022 0.16584818 17.02640043 -2.20217896 17.00914001 C-3.24137091 17.01815508 -3.24137091 17.01815508 -4.30155665 17.02735227 C-7.1570154 16.98933987 -8.97631859 16.94000515 -11.31265163 15.21392918 C-12.58750832 13.35961206 -13.09447715 11.96498326 -13.46998596 9.74645996 C-13.67301331 8.76032715 -13.67301331 8.76032715 -13.88014221 7.75427246 C-13.22768407 4.8101225 -11.47557357 3.53422336 -9.18182576 1.70105267 C-6.18529547 -0.12217885 -3.45414761 -0.00190307 0 0 Z " fill="#F6C23D" transform="translate(97.40748596191406,226.3785400390625)"/>
<path d="M0 0 C3.21623803 0.49575923 5.39748697 0.88268426 8.02734375 2.875 C9.43866109 6.5444251 8.95323451 9.60557655 7.96484375 13.3125 C6.03789163 17.64537969 3.72359189 21.74285934 1.40234375 25.875 C0.0241167 28.37571879 -1.34483343 30.8814914 -2.71484375 33.38671875 C-3.06973373 34.03268005 -3.42462372 34.67864136 -3.79026794 35.34417725 C-7.38638851 41.90625553 -10.8078217 48.55431966 -14.2144165 55.21621704 C-20.54194204 67.58762305 -26.9945631 79.88136158 -33.77099609 92.01464844 C-34.64847714 93.60963715 -35.50137253 95.21830164 -36.33447266 96.83691406 C-36.75776855 97.64612305 -37.18106445 98.45533203 -37.6171875 99.2890625 C-37.98690674 100.01432129 -38.35662598 100.73958008 -38.73754883 101.48681641 C-40.28502352 103.66405361 -41.56067988 104.36487947 -44.03515625 105.3125 C-47.01102405 105.68332465 -48.46907214 105.66769003 -51.02734375 104.0625 C-51.64867187 103.485 -52.27 102.9075 -52.91015625 102.3125 C-53.52632813 101.755625 -54.1425 101.19875 -54.77734375 100.625 C-56.70060268 98.65515694 -58.49612418 96.64573897 -60.29296875 94.5625 C-64.01261743 90.27174371 -67.98292551 86.2871018 -72.03515625 82.3125 C-76.73358366 77.70408078 -81.25912745 73.03323064 -85.54711914 68.03759766 C-86.82284354 66.55863644 -88.14363247 65.11875638 -89.47265625 63.6875 C-91.52006822 60.5754338 -91.72066657 58.96855504 -91.03515625 55.3125 C-88.97265625 52.375 -88.97265625 52.375 -86.03515625 50.3125 C-81.45905715 50.25743262 -78.82968408 51.1427041 -75.53515625 54.19140625 C-74.35221577 55.40360028 -73.18601908 56.63231046 -72.03515625 57.875 C-71.42067627 58.51397217 -70.80619629 59.15294434 -70.1730957 59.8112793 C-66.56745186 63.58558581 -63.07285514 67.44912835 -59.69140625 71.42578125 C-56.34804492 75.23437447 -52.84118025 78.96381901 -49.03515625 82.3125 C-48.37515625 82.3125 -47.71515625 82.3125 -47.03515625 82.3125 C-46.52243164 81.30687012 -46.00970703 80.30124023 -45.48144531 79.26513672 C-27.86236277 44.72977434 -27.86236277 44.72977434 -18.6875 28.15625 C-16.8145825 24.76525451 -15.00275837 21.34890108 -13.2265625 17.90625 C-12.77289307 17.02855957 -12.31922363 16.15086914 -11.85180664 15.24658203 C-11.00457748 13.59988148 -10.1634137 11.95003868 -9.32983398 10.29638672 C-4.37278714 0.67144524 -4.37278714 0.67144524 0 0 Z " fill="#FBFDFE" transform="translate(445.03515625,105.6875)"/>
<path d="M0 0 C1.29152985 -0.0071553 2.58305969 -0.01431061 3.91372681 -0.02168274 C7.44897283 -0.04017771 10.98346349 -0.02727192 14.51867795 -0.00759244 C18.22038207 0.00880813 21.92203887 -0.00002062 25.62376404 -0.00511169 C31.83865409 -0.00963055 38.05324296 0.00622535 44.26806641 0.03417969 C51.45222606 0.06624503 58.63584298 0.06620991 65.82004124 0.04896492 C72.73404401 0.03310028 79.64784789 0.03983197 86.56184196 0.05690193 C89.50318639 0.06377262 92.44437139 0.06273995 95.38571358 0.05535698 C99.49182408 0.0462719 103.5970962 0.07022844 107.703125 0.09765625 C108.9245369 0.09113037 110.14594879 0.08460449 111.40437317 0.07788086 C112.52172852 0.09060532 113.63908386 0.10332977 114.79029846 0.11643982 C116.24620817 0.1206502 116.24620817 0.1206502 117.73153019 0.12494564 C121.01614027 0.77555749 122.21427557 2.05793894 124.28686523 4.63110352 C124.99568827 7.53895233 124.62658312 9.57364252 124.28686523 12.63110352 C122.47523256 15.30541841 121.40925447 15.59030711 118.28686523 16.63110352 C116.52219663 16.7318031 114.75399019 16.77470966 112.98648071 16.78500366 C111.88732834 16.79360413 110.78817596 16.80220459 109.65571594 16.81106567 C107.8462574 16.8174556 107.8462574 16.8174556 106.00024414 16.82397461 C104.73011978 16.8321521 103.45999542 16.84032959 102.15138245 16.84875488 C97.93875238 16.87494173 93.72611252 16.89027652 89.51342773 16.90454102 C88.06264617 16.90990157 86.61186466 16.91527908 85.16108322 16.92067337 C79.12696252 16.94229483 73.09284446 16.96103226 67.05869484 16.97229576 C58.41256286 16.98854186 49.76687973 17.02174337 41.12091696 17.07869661 C35.04014917 17.11738685 28.95950149 17.13692717 22.87861383 17.14221632 C19.24703364 17.14587036 15.61593255 17.15789641 11.98448563 17.19031906 C7.93347676 17.22597088 3.88343428 17.22203131 -0.16772461 17.21459961 C-1.36998184 17.23100494 -2.57223907 17.24741028 -3.81092834 17.26431274 C-12.85863922 17.19618842 -12.85863922 17.19618842 -15.9581604 14.28213501 C-17.71313477 11.63110352 -17.71313477 11.63110352 -18.33813477 8.63110352 C-17.69507199 5.54440218 -16.88629651 3.84565447 -14.58333015 1.68083382 C-10.24539844 -0.7540232 -4.82993633 -0.04631224 0 0 Z " fill="#F8C33D" transform="translate(101.713134765625,314.368896484375)"/>
<path d="M0 0 C1.00100235 -0.0112793 2.0020047 -0.02255859 3.03334045 -0.03417969 C4.67144936 -0.0220343 4.67144936 -0.0220343 6.34265137 -0.00964355 C7.4974852 -0.01665283 8.65231903 -0.02366211 9.84214783 -0.03088379 C13.66482488 -0.04850909 17.48676347 -0.03682409 21.30944824 -0.02331543 C23.9621676 -0.02600902 26.61486441 -0.029884 29.26757812 -0.03491211 C34.82930524 -0.04218728 40.39081981 -0.03260447 45.95251465 -0.0135498 C52.3806011 0.00821899 58.80818006 0.0011675 65.23625422 -0.02085543 C70.75741495 -0.03901338 76.27842299 -0.04156592 81.79960394 -0.03110075 C85.09624305 -0.02486784 88.39259159 -0.02559701 91.68922424 -0.0372467 C95.36441564 -0.04738333 99.03862689 -0.03194973 102.71374512 -0.00964355 C103.80581772 -0.01774048 104.89789032 -0.0258374 106.02305603 -0.03417969 C107.52455956 -0.01726074 107.52455956 -0.01726074 109.05639648 0 C110.3593932 0.00226215 110.3593932 0.00226215 111.68871307 0.00457001 C114.84797084 0.68431717 116.05323144 1.99748448 118.02819824 4.50793457 C118.52819824 8.00793457 118.52819824 8.00793457 118.02819824 11.50793457 C116.05323144 14.01838466 114.84797084 15.33155197 111.68871307 16.01129913 C110.38571636 16.01356129 110.38571636 16.01356129 109.05639648 16.01586914 C108.05539413 16.02714844 107.05439178 16.03842773 106.02305603 16.05004883 C104.93098343 16.0419519 103.83891083 16.03385498 102.71374512 16.0255127 C100.98149437 16.03602661 100.98149437 16.03602661 99.21424866 16.04675293 C95.3915716 16.06437823 91.56963301 16.05269323 87.74694824 16.03918457 C85.09422888 16.04187816 82.44153208 16.04575314 79.78881836 16.05078125 C74.22709125 16.05805642 68.66557667 16.04847361 63.10388184 16.02941895 C56.67579539 16.00765016 50.24821642 16.01470164 43.82014227 16.03672457 C38.29898154 16.05488252 32.77797349 16.05743506 27.25679255 16.04696989 C23.96015344 16.04073698 20.6638049 16.04146615 17.36717224 16.05311584 C13.69198085 16.06325247 10.01776959 16.04781887 6.34265137 16.0255127 C4.70454247 16.03765808 4.70454247 16.03765808 3.03334045 16.05004883 C1.53183693 16.03312988 1.53183693 16.03312988 0 16.01586914 C-0.86866447 16.01436104 -1.73732895 16.01285294 -2.63231659 16.01129913 C-5.79157436 15.33155197 -6.99683495 14.01838466 -8.97180176 11.50793457 C-9.47180176 8.00793457 -9.47180176 8.00793457 -8.97180176 4.50793457 C-6.20720067 0.99375245 -4.44128675 0.00771059 0 0 Z " fill="#FEFEFE" transform="translate(222.9718017578125,402.4920654296875)"/>
<path d="M0 0 C1.07680527 -0.00700928 2.15361053 -0.01401855 3.26304626 -0.02124023 C6.82601635 -0.0388598 10.38819357 -0.02718275 13.95117188 -0.01367188 C16.42452141 -0.01636563 18.89786992 -0.02024708 21.37121582 -0.02526855 C26.55633623 -0.031169 31.74118113 -0.02258265 36.92626953 -0.00390625 C43.57809143 0.01888337 50.22899875 0.00576344 56.88083649 -0.01819611 C61.98859536 -0.03263902 67.09620078 -0.02805491 72.20396423 -0.01768494 C74.65681535 -0.01501351 77.10968032 -0.01830196 79.56251526 -0.02760315 C82.98866772 -0.03774345 86.41376968 -0.02230144 89.83984375 0 C90.85711044 -0.00809692 91.87437714 -0.01619385 92.92247009 -0.02453613 C99.75343827 0.05798439 99.75343827 0.05798439 103.04992676 2.33117676 C105.07673288 5.56579534 104.95315519 7.78494491 104.41992188 11.51757812 C103.04992676 13.70397949 103.04992676 13.70397949 100.41992188 15.51757812 C96.89802998 16.12423682 93.40604826 16.06354142 89.83984375 16.03515625 C88.22463585 16.04567017 88.22463585 16.04567017 86.57679749 16.05639648 C83.0138274 16.07401605 79.45165018 16.062339 75.88867188 16.04882812 C73.41532234 16.05152188 70.94197383 16.05540333 68.46862793 16.0604248 C63.28350752 16.06632525 58.09866262 16.0577389 52.91357422 16.0390625 C46.26175232 16.01627288 39.610845 16.02939281 32.95900726 16.05335236 C27.85124839 16.06779527 22.74364297 16.06321116 17.63587952 16.05284119 C15.1830284 16.05016976 12.73016343 16.05345821 10.27732849 16.0627594 C6.85117603 16.0728997 3.42607407 16.05745769 0 16.03515625 C-1.01726669 16.04325317 -2.03453339 16.0513501 -3.08262634 16.05969238 C-9.91359452 15.97717186 -9.91359452 15.97717186 -13.21008301 13.70397949 C-15.23688913 10.46936091 -15.11331144 8.25021134 -14.58007812 4.51757812 C-11.13791022 -0.97584337 -5.81339752 -0.04627168 0 0 Z " fill="#F8562B" transform="translate(98.580078125,402.482421875)"/>
<path d="M0 0 C1.40819252 -0.0131424 1.40819252 -0.0131424 2.84483337 -0.02655029 C5.94325184 -0.04852904 9.04023929 -0.03399654 12.13867188 -0.01708984 C14.29431431 -0.0204584 16.44995489 -0.02531135 18.60559082 -0.03158569 C23.121522 -0.03895498 27.6369584 -0.02824928 32.15283203 -0.00488281 C37.94033439 0.0236045 43.72667744 0.0072009 49.51413727 -0.02274513 C53.96487151 -0.04081628 58.41533107 -0.0350608 62.86607361 -0.02210617 C64.99991493 -0.01877168 67.13378122 -0.02286072 69.26759338 -0.03450394 C72.2506817 -0.04720921 75.23189504 -0.0278393 78.21484375 0 C79.09603378 -0.01012115 79.97722382 -0.02024231 80.88511658 -0.03067017 C85.27824652 0.04525251 87.07027304 0.23231136 90.65539551 2.99990845 C92.60742188 5.64697266 92.60742188 5.64697266 93.23242188 8.64697266 C92.36943115 12.78932815 90.95020214 14.0664558 87.60742188 16.64697266 C84.4755707 17.37532114 81.41918987 17.33074973 78.21484375 17.29394531 C77.27604874 17.30270691 76.33725372 17.31146851 75.37001038 17.32049561 C72.27159191 17.34247435 69.17460446 17.32794185 66.07617188 17.31103516 C63.92052944 17.31440372 61.76488886 17.31925667 59.60925293 17.32553101 C55.09332175 17.33290029 50.57788535 17.32219459 46.06201172 17.29882812 C40.27450936 17.27034081 34.48816631 17.28674441 28.70070648 17.31669044 C24.24997224 17.3347616 19.79951268 17.32900612 15.34877014 17.31605148 C13.21492882 17.31271699 11.08106253 17.31680604 8.94725037 17.32844925 C5.96416205 17.34115452 2.98294871 17.32178461 0 17.29394531 C-0.88119003 17.30406647 -1.76238007 17.31418762 -2.67027283 17.32461548 C-7.06340277 17.2486928 -8.85542929 17.06163396 -12.44055176 14.29403687 C-14.39257812 11.64697266 -14.39257812 11.64697266 -15.01757812 8.64697266 C-13.28786295 0.34433982 -7.15255663 -0.08215269 0 0 Z " fill="#F4562C" transform="translate(176.392578125,270.35302734375)"/>
<path d="M0 0 C1.19092758 -0.01051392 1.19092758 -0.01051392 2.40591431 -0.02124023 C5.02747689 -0.03882973 7.6479579 -0.02719461 10.26953125 -0.01367188 C12.09269416 -0.01636653 13.91585568 -0.02024872 15.73901367 -0.02526855 C19.55889578 -0.03116488 23.3784036 -0.02259641 27.19824219 -0.00390625 C32.09457694 0.01888349 36.9900347 0.00576111 41.88633728 -0.01819611 C45.65074267 -0.03265052 49.41494015 -0.02804976 53.17935181 -0.01768494 C54.98467106 -0.01501666 56.79000919 -0.01829097 58.5953064 -0.02760315 C61.11873367 -0.03776305 63.64074099 -0.02227675 66.1640625 0 C67.28320541 -0.01214539 67.28320541 -0.01214539 68.42495728 -0.02453613 C71.84366021 0.03137478 73.75952354 0.28016375 76.5456543 2.33117676 C78.79748299 5.53572974 78.62760376 7.69857054 78.08203125 11.51757812 C76.5456543 13.70397949 76.5456543 13.70397949 74.08203125 15.51757812 C71.30987326 15.91231324 68.93458074 16.06522302 66.1640625 16.03515625 C64.97313492 16.04567017 64.97313492 16.04567017 63.75814819 16.05639648 C61.13658561 16.07398598 58.5161046 16.06235086 55.89453125 16.04882812 C54.07136834 16.05152278 52.24820682 16.05540497 50.42504883 16.0604248 C46.60516672 16.06632113 42.7856589 16.05775266 38.96582031 16.0390625 C34.06948556 16.01627276 29.1740278 16.02939514 24.27772522 16.05335236 C20.51331983 16.06780677 16.74912235 16.06320601 12.98471069 16.05284119 C11.17939144 16.05017291 9.37405331 16.05344722 7.5687561 16.0627594 C5.04532883 16.0729193 2.52332151 16.057433 0 16.03515625 C-1.11914291 16.04730164 -1.11914291 16.04730164 -2.26089478 16.05969238 C-5.67959771 16.00378147 -7.59546104 15.7549925 -10.3815918 13.70397949 C-12.63342049 10.49942651 -12.46354126 8.33658571 -11.91796875 4.51757812 C-8.70632285 -0.05288029 -5.20275375 -0.05646236 0 0 Z " fill="#FEFEFE" transform="translate(163.91796875,183.482421875)"/>
<path d="M0 0 C0.73382401 -0.00861557 1.46764801 -0.01723114 2.22370911 -0.02610779 C4.64567497 -0.0487814 7.06648496 -0.04202665 9.48852539 -0.03295898 C11.17477258 -0.0381943 12.86101683 -0.04447044 14.54725647 -0.05174255 C18.08047266 -0.06214952 21.61328619 -0.05758174 25.14648438 -0.04296875 C29.67071539 -0.02578723 34.19367567 -0.04926575 38.71776485 -0.08445835 C42.20000092 -0.10643784 45.68193323 -0.10498952 49.164217 -0.09669304 C50.83195959 -0.09587367 52.49972452 -0.10273431 54.16740227 -0.11746407 C56.50171438 -0.13491987 58.83374761 -0.12036234 61.16796875 -0.09765625 C62.1975621 -0.11519455 62.1975621 -0.11519455 63.24795532 -0.13308716 C67.03630801 -0.05825101 68.58519358 0.48261077 71.58106995 2.88148499 C73.64868164 5.53344727 73.64868164 5.53344727 74.21118164 8.59594727 C73.5267696 12.17009904 72.50049295 13.33347854 69.64868164 15.53344727 C66.17489043 16.69137767 63.44397847 16.67467218 59.77807617 16.69458008 C59.08341248 16.69954498 58.38874878 16.70450989 57.67303467 16.70962524 C55.3758444 16.72422556 53.07872318 16.73104511 50.78149414 16.73657227 C49.18350218 16.74232526 47.58551024 16.74808297 45.98751831 16.75384521 C42.63677652 16.76434899 39.28605867 16.7701958 35.93530273 16.77368164 C31.64566448 16.77916659 27.35634361 16.80319706 23.06680489 16.83165359 C19.76564616 16.85029371 16.46456369 16.85548629 13.16335678 16.85701752 C11.58213439 16.86004123 10.00091325 16.86806031 8.41974258 16.8812027 C6.20560926 16.89829323 3.99224903 16.89637611 1.77807617 16.88989258 C0.51915558 16.89353821 -0.73976501 16.89718384 -2.03683472 16.90093994 C-5.61724046 16.50396321 -7.49896852 15.69297137 -10.35131836 13.53344727 C-11.89718712 10.44170975 -11.64491357 7.93915174 -11.35131836 4.53344727 C-8.23575637 0.15344998 -5.04323984 -0.04780742 0 0 Z " fill="#F6C23D" transform="translate(181.351318359375,358.466552734375)"/>
<path d="M0 0 C0.97147224 -0.01073296 0.97147224 -0.01073296 1.96257019 -0.02168274 C4.09751528 -0.03855391 6.2303554 -0.0191811 8.36523438 0.00219727 C9.85209324 0.0013684 11.33895201 -0.00109166 12.82580566 -0.00511169 C15.93965283 -0.00796856 19.05278025 0.00671906 22.16650391 0.03417969 C26.15493162 0.0682636 30.14207251 0.06224395 34.13056183 0.04351711 C37.20016171 0.0329409 40.26946291 0.04189031 43.33903503 0.05690193 C44.80941378 0.06207973 46.27982378 0.06160678 47.75019836 0.05535698 C49.80680232 0.04989671 51.86157375 0.07030032 53.91796875 0.09765625 C55.08726929 0.10385483 56.25656982 0.11005341 57.46130371 0.11643982 C61.09259114 0.73988575 62.28320504 1.70034545 64.45898438 4.63110352 C64.95898438 8.13110352 64.95898438 8.13110352 64.45898438 11.63110352 C62.24035408 14.53827425 60.93953509 15.47091994 57.45898438 16.63110352 C55.48228863 16.7448645 53.50204213 16.80032622 51.5222168 16.82397461 C50.30052292 16.84003754 49.07882904 16.85610046 47.82011414 16.87265015 C46.4849009 16.88413763 45.14967985 16.89474617 43.81445312 16.90454102 C43.14067438 16.90986469 42.46689564 16.91518837 41.77269936 16.92067337 C38.20614384 16.94737291 34.63962294 16.96675772 31.07299805 16.98120117 C28.12704395 16.99453754 25.18178304 17.02238688 22.23608398 17.06323242 C18.67286139 17.11263421 15.1102671 17.13733079 11.54671669 17.14442825 C9.53589553 17.15437315 7.5252416 17.18859708 5.51469421 17.22323608 C-4.66690437 17.19966632 -4.66690437 17.19966632 -8.37963867 14.28588867 C-10.54101562 11.63110352 -10.54101562 11.63110352 -11.16601562 8.63110352 C-9.78022192 1.97929374 -6.54122716 0.00538023 0 0 Z " fill="#F9F9FA" transform="translate(94.541015625,358.368896484375)"/>
<path d="M0 0 C1.22404541 -0.00004028 2.44809082 -0.00008057 3.70922852 -0.00012207 C6.2948114 0.00523469 8.88039378 0.02282367 11.46582031 0.05175781 C15.42303235 0.09359703 19.37854167 0.09282677 23.3359375 0.0859375 C25.84897016 0.0964305 28.36199405 0.10936918 30.875 0.125 C32.05843994 0.12520142 33.24187988 0.12540283 34.46118164 0.12561035 C36.11815063 0.14947815 36.11815063 0.14947815 37.80859375 0.17382812 C38.77724365 0.18224731 39.74589355 0.1906665 40.74389648 0.19934082 C43.93346797 0.66637179 45.83890435 1.71446743 48.4375 3.59375 C50.00180248 6.72235495 49.79377284 9.14977925 49.4375 12.59375 C47.22805092 15.40091386 45.35035399 16.46233665 41.8137207 16.97146606 C38.42163667 17.14203962 35.05264031 17.17413241 31.65625 17.16015625 C30.41000854 17.16635483 29.16376709 17.17255341 27.87976074 17.17893982 C24.57376812 17.18785347 21.26851879 17.17673796 17.96258545 17.15985107 C15.93907068 17.15625279 13.91647195 17.17018597 11.89306641 17.19067383 C8.00119121 17.2275062 4.1107658 17.2301888 0.21875 17.22265625 C-0.98656372 17.23591446 -2.19187744 17.24917267 -3.43371582 17.26283264 C-12.72763558 17.15926264 -12.72763558 17.15926264 -15.82226562 14.24194336 C-17.5625 11.59375 -17.5625 11.59375 -18.1875 8.59375 C-17.54405172 5.50519824 -16.72818155 3.81043182 -14.42773438 1.64135742 C-10.13135562 -0.77170033 -4.78403082 -0.06627751 0 0 Z " fill="#FAFAFA" transform="translate(101.5625,270.40625)"/>
<path d="M0 0 C1.17965332 -0.00619858 2.35930664 -0.01239716 3.57470703 -0.01878357 C6.06607234 -0.02588004 8.55748509 -0.02271086 11.04882812 -0.01000977 C14.8615638 0.00385738 18.67184648 -0.03022425 22.484375 -0.06835938 C24.9062506 -0.06931055 27.32812927 -0.06745183 29.75 -0.0625 C30.88969238 -0.07575821 32.02938477 -0.08901642 33.20361328 -0.10267639 C41.08628186 -0.00987727 41.08628186 -0.00987727 45.09375 2.91821289 C46.875 5.56640625 46.875 5.56640625 47.5 8.56640625 C46.61698257 12.80488989 45.38269872 13.99494887 41.875 16.56640625 C37.90741429 17.29931241 33.99324104 17.21918425 29.96875 17.16015625 C28.23256409 17.16021667 28.23256409 17.16021667 26.46130371 17.16027832 C24.01695316 17.15492278 21.57260306 17.13733893 19.12841797 17.10839844 C15.38846167 17.06655686 11.65030707 17.0673299 7.91015625 17.07421875 C5.53384166 17.0637257 3.15753635 17.05078699 0.78125 17.03515625 C-0.3365686 17.03495483 -1.45438721 17.03475342 -2.6060791 17.0345459 C-3.65066284 17.01863403 -4.69524658 17.00272217 -5.77148438 16.98632812 C-6.6868396 16.97790894 -7.60219482 16.96948975 -8.54528809 16.96081543 C-11.95600866 16.43935429 -14.66960648 15.02179977 -17.125 12.56640625 C-17.68881487 6.83428844 -17.68881487 6.83428844 -17.125 4.56640625 C-12.51004761 -0.88393505 -6.58449114 -0.02865529 0 0 Z " fill="#FAFAFB" transform="translate(297.125,270.43359375)"/>
<path d="M0 0 C1.16801147 -0.01260864 2.33602295 -0.02521729 3.53942871 -0.03820801 C4.79678833 -0.03011108 6.05414795 -0.02201416 7.34960938 -0.01367188 C8.64402954 -0.01749878 9.93844971 -0.02132568 11.27209473 -0.02526855 C14.00922783 -0.03115875 16.74583796 -0.02261726 19.48291016 -0.00390625 C22.98707964 0.01888443 26.49002371 0.00575858 29.99414825 -0.01819611 C33.34189958 -0.03614642 36.68932325 -0.02356948 40.03710938 -0.01367188 C41.29446899 -0.0217688 42.55182861 -0.02986572 43.84729004 -0.03820801 C45.59930725 -0.01929504 45.59930725 -0.01929504 47.38671875 0 C48.41390015 0.00318237 49.44108154 0.00636475 50.49938965 0.00964355 C53.91761015 0.654132 55.10393464 1.77932639 57.19335938 4.51757812 C57.69335938 8.01757812 57.69335938 8.01757812 57.19335938 11.51757812 C55.10144119 14.26197278 53.91938211 15.3828402 50.49266052 16.01878357 C48.94736412 16.01903282 48.94736412 16.01903282 47.37084961 16.01928711 C46.19961044 16.02866806 45.02837128 16.03804901 43.82164001 16.04771423 C42.56114334 16.03648026 41.30064667 16.02524628 40.00195312 16.01367188 C38.70516129 16.01512711 37.40836945 16.01658234 36.07228088 16.01808167 C33.33093924 16.01946446 30.59012157 16.0069272 27.84887695 15.98413086 C24.33579637 15.95571744 20.82358426 15.95849221 17.31043911 15.97122097 C13.95751931 15.97984774 10.60485825 15.96473489 7.25195312 15.95117188 C5.35817177 15.95557533 5.35817177 15.95557533 3.4261322 15.96006775 C2.2580452 15.94738358 1.08995819 15.9346994 -0.11352539 15.92163086 C-1.6576284 15.91352638 -1.6576284 15.91352638 -3.23292542 15.90525818 C-6.17269909 15.46243855 -7.05665154 14.87114071 -8.80664062 12.51757812 C-9.45898438 10.61523438 -9.45898438 10.61523438 -9.74414062 8.58007812 C-9.85628906 7.91105469 -9.9684375 7.24203125 -10.08398438 6.55273438 C-9.33268148 1.03965255 -4.82347946 0.01494391 0 0 Z " fill="#F7562B" transform="translate(93.806640625,446.482421875)"/>
<path d="M0 0 C4.45483354 2.60282409 7.67350407 5.28140255 9.7734375 10.09375 C10.51692954 15.72415323 10.5750295 20.43118881 8.0859375 25.59375 C4.25421058 29.73615748 1.09039796 32.72402511 -4.6796875 33.3671875 C-10.31253352 33.57173219 -14.39230465 33.4590722 -18.7890625 29.70703125 C-22.38116841 25.67567326 -24.41514967 21.39297543 -24.6640625 15.96875 C-23.88244347 9.04583856 -21.11533226 5.61265631 -15.9453125 1.29296875 C-11.36366654 -1.90377059 -5.08364754 -2.06913374 0 0 Z " fill="#FBC63F" transform="translate(127.2265625,25.90625)"/>
<path d="M0 0 C4.98720412 2.21864214 8.75554583 5.19076126 10.8046875 10.3515625 C11.7373943 16.52177669 11.51833432 22.15245696 7.8046875 27.3515625 C3.47709126 31.69098278 -0.26580293 33.50434978 -6.3828125 33.7890625 C-11.64937793 33.73325783 -14.65583304 32.57778629 -18.6015625 29.1171875 C-22.7474853 24.52415538 -23.77736363 19.49082836 -23.54296875 13.48828125 C-22.55411737 7.41073402 -17.80726038 3.86065328 -13.1953125 0.3515625 C-9.15211778 -1.67003486 -4.2590617 -1.25801466 0 0 Z " fill="#F8592D" transform="translate(68.1953125,25.6484375)"/>
<path d="M0 0 C4.45483354 2.60282409 7.67350407 5.28140255 9.7734375 10.09375 C10.50018519 15.52921708 10.70952272 21.05844885 8.2734375 26.09375 C4.4679763 30.66030344 0.93685779 32.61196473 -4.9453125 33.5078125 C-10.43561068 33.794394 -14.53002409 33.3415472 -18.7890625 29.70703125 C-22.35096487 25.70957017 -24.4037118 21.4051519 -24.7265625 16.03125 C-23.96070668 10.00013538 -21.73327001 6.19544182 -17.1640625 2.21875 C-12.02822005 -1.49654028 -5.96207546 -2.42666931 0 0 Z " fill="#47B8C4" transform="translate(185.2265625,25.90625)"/>
<path d="M0 0 C1.00349991 -0.00619858 2.00699982 -0.01239716 3.04090881 -0.01878357 C5.1616214 -0.02588246 7.28238971 -0.02270656 9.40307617 -0.01000977 C12.64541425 0.00384326 15.88485939 -0.03019972 19.12695312 -0.06835938 C21.18880279 -0.0693107 23.25065606 -0.06745101 25.3125 -0.0625 C26.2803392 -0.07575821 27.24817841 -0.08901642 28.24534607 -0.10267639 C32.86839136 -0.03884109 35.05322549 0.0743962 38.86938477 2.87915039 C40.72265625 5.56640625 40.72265625 5.56640625 40.78515625 9.19140625 C39.60567479 12.93799441 39.00049987 13.62749116 35.72265625 15.56640625 C33.5222168 15.9540863 33.5222168 15.9540863 31.109375 15.97045898 C29.74776245 15.98948524 29.74776245 15.98948524 28.35864258 16.00889587 C26.89914185 16.00449242 26.89914185 16.00449242 25.41015625 16 C24.40428467 16.00524185 23.39841309 16.0104837 22.36206055 16.0158844 C20.23715131 16.02230273 18.11220654 16.02097007 15.98730469 16.01245117 C12.73438382 16.00393695 9.48321633 16.032713 6.23046875 16.06445312 C4.16536511 16.06606511 2.10025836 16.06548766 0.03515625 16.0625 C-0.93784424 16.07373398 -1.91084473 16.08496796 -2.91333008 16.09654236 C-9.61272091 16.02730828 -9.61272091 16.02730828 -12.890625 13.75415039 C-14.93965025 10.52152447 -14.81185832 8.30800824 -14.27734375 4.56640625 C-10.84591601 -0.82773301 -5.76215249 -0.02946758 0 0 Z " fill="#F7562B" transform="translate(98.27734375,183.43359375)"/>
<path d="M0 0 C0.67293091 -0.00619858 1.34586182 -0.01239716 2.03918457 -0.01878357 C3.45791176 -0.02586816 4.87672232 -0.02273126 6.29541016 -0.01000977 C8.46282166 0.00386829 10.62592117 -0.03023311 12.79296875 -0.06835938 C14.17448022 -0.06931058 15.55599708 -0.06745166 16.9375 -0.0625 C18.81598633 -0.06358765 18.81598633 -0.06358765 20.73242188 -0.06469727 C23.96875 0.56640625 23.96875 0.56640625 26.37695312 2.91430664 C28.32375807 6.15788672 28.60215543 7.84514938 27.96875 11.56640625 C25.73668569 14.41421244 24.41882001 15.41638291 20.96875 16.56640625 C16.51503634 16.85413949 12.05570644 16.84411969 7.59375 16.87890625 C6.36140625 16.90791016 5.1290625 16.93691406 3.859375 16.96679688 C2.07660156 16.97936523 2.07660156 16.97936523 0.2578125 16.9921875 C-1.37099854 17.01406128 -1.37099854 17.01406128 -3.03271484 17.03637695 C-6.72867677 16.45709616 -8.3828327 15.15577569 -11.03125 12.56640625 C-11.66015625 10.56640625 -11.66015625 10.56640625 -11.59375 8.56640625 C-11.59503906 7.90640625 -11.59632813 7.24640625 -11.59765625 6.56640625 C-9.90802958 0.60027621 -5.54294841 0.04814064 0 0 Z " fill="#F3562C" transform="translate(277.03125,358.43359375)"/>
<path d="M0 0 C4.99268902 1.47931526 4.99268902 1.47931526 6.375 4 C6.76774738 7.09288558 7.01077985 9.04689172 6.375 12 C3.98554251 14.73080856 2.40166021 15.76900145 -1.125 16.5625 C-4.86496182 15.72100859 -6.33353575 14.01163873 -8.625 11 C-9.25 8 -9.25 8 -8.625 5 C-5.91953265 1.14675862 -4.77773264 0 0 0 Z " fill="#F6F7F7" transform="translate(57.625,315)"/>
<path d="M0 0 C2.71604883 1.92982417 3.74692606 3.34200775 4.9375 6.4375 C5.01929321 9.79102143 3.98804097 11.34927871 2 14 C-1.12860495 15.56430248 -3.55602925 15.35627284 -7 15 C-9.5 12.9375 -9.5 12.9375 -11 10 C-10.93977486 6.50694211 -10.63658168 4.09633511 -8.875 1.0625 C-5.81547541 -0.6712306 -3.43182475 -0.42145216 0 0 Z " fill="#F8F9F9" transform="translate(60,184)"/>
<path d="M0 0 C2 1 2 1 3 3 C3.75912409 9.83211679 3.75912409 9.83211679 1.375 13.5 C-1.70110743 15.44280469 -3.41889189 15.52224493 -7 15 C-9.3125 14 -9.3125 14 -11 12 C-11.8929657 9.28653648 -12.2236514 6.85012171 -12 4 C-9.10138944 -1.04106185 -5.25616303 -0.58401811 0 0 Z " fill="#F8F8F9" transform="translate(61,272)"/>
<path d="M0 0 C2.4375 1.5625 2.4375 1.5625 4 4 C4.56783945 7.97487617 4.62340519 10.06489221 2.375 13.4375 C-0.75683492 15.49791771 -2.31544773 15.6767545 -6 15 C-9.36344489 12.51397551 -10.80057749 11.08574477 -11.5625 6.9375 C-11 4 -11 4 -9.4375 1.625 C-6.06489221 -0.62340519 -3.97487617 -0.56783945 0 0 Z " fill="#FAFAFA" transform="translate(60,447)"/>
<path d="M0 0 C3.5 0.5625 3.5 0.5625 5.9375 2.125 C8.10396028 5.50467804 8.06288002 7.62233987 7.5 11.5625 C5.9375 14 5.9375 14 3.5 15.5625 C0.06817525 15.98395216 -2.31547541 16.2337306 -5.375 14.5 C-7.13658168 11.46616489 -7.43977486 9.05555789 -7.5 5.5625 C-5.47546599 1.59778757 -4.42267232 0.71078662 0 0 Z " fill="#FAFAFA" transform="translate(56.5,402.4375)"/>
<path d="M0 0 C3.8815279 0.7129337 5.49671091 1.5439246 8.0625 4.5625 C8.75868391 7.57122525 8.51576577 9.38963964 8.0625 12.5625 C5.78295596 15.48031637 4.23686907 15.54070387 0.5625 16 C-2.9375 15.5625 -2.9375 15.5625 -5.375 13.9375 C-7.42134007 10.82706309 -7.53557728 9.22572334 -6.9375 5.5625 C-4.96064502 2.06498734 -3.99166974 0.76436229 0 0 Z " fill="#F9FAFA" transform="translate(55.9375,358.4375)"/>
<path d="M0 0 C2.4375 1 2.4375 1 4 3 C4.5659239 7.45665069 4.82483134 9.73102871 2.375 13.5 C-0.76313998 15.48198314 -2.34873465 15.67064058 -6 15 C-9.36344489 12.51397551 -10.80057749 11.08574477 -11.5625 6.9375 C-11 4 -11 4 -9.4375 1.625 C-6.08716465 -0.6085569 -3.9518567 -0.49398209 0 0 Z " fill="#FAFAFB" transform="translate(60,228)"/>
<path d="M0 0 C4.99268902 1.47931526 4.99268902 1.47931526 6.375 4 C6.83583252 6.7592347 6.8801125 9.24484092 6.375 12 C4.09545596 14.91781637 2.54936907 14.97820387 -1.125 15.4375 C-4.625 15 -4.625 15 -7.0625 13.375 C-9.12291771 10.24316508 -9.3017545 8.68455227 -8.625 5 C-5.91953265 1.14675862 -4.77773264 0 0 0 Z " fill="#FAFAFB" transform="translate(57.625,140)"/>
<path d="M0 0 C0.66 0.33 1.32 0.66 2 1 C-1.63 4.63 -5.26 8.26 -9 12 C-9 8.47601214 -8.44884893 7.98495633 -6.1875 5.4375 C-5.40439453 4.53837891 -5.40439453 4.53837891 -4.60546875 3.62109375 C-3 2 -3 2 0 0 Z " fill="#C1C3C6" transform="translate(23,5)"/>
</svg>
