<?xml version="1.0" encoding="UTF-8"?>
<svg version="1.1" xmlns="http://www.w3.org/2000/svg" width="512" height="512">
<path d="M0 0 C0.83999609 -0.00290688 1.67999218 -0.00581376 2.5454427 -0.00880873 C5.38492477 -0.01615858 8.22419411 -0.00914227 11.06367493 -0.002285 C13.11002813 -0.00458747 15.1563805 -0.00776254 17.20273113 -0.01173949 C22.84536415 -0.0201256 28.48792993 -0.01594498 34.13056326 -0.00976706 C40.20833904 -0.00525911 46.2861029 -0.01221806 52.36387634 -0.0177269 C63.5885496 -0.02612459 74.8132012 -0.02537099 86.03787401 -0.01990396 C96.40628905 -0.0148786 106.77469618 -0.01355676 117.14311218 -0.01594925 C118.1735918 -0.0161784 118.1735918 -0.0161784 119.22488918 -0.01641219 C122.01338738 -0.01703484 124.80188558 -0.01767163 127.59038378 -0.01833172 C153.76414115 -0.02445371 179.93788477 -0.01889646 206.11164002 -0.00813792 C229.3802456 0.00135373 252.6488293 0.00050449 275.91743469 -0.00905991 C302.04243334 -0.01976243 328.16741985 -0.02401959 354.29242039 -0.01783538 C357.07592328 -0.01719392 359.85942618 -0.01656824 362.64292908 -0.01594925 C363.32832995 -0.01579109 364.01373081 -0.01563294 364.71990141 -0.01546999 C375.0833871 -0.01319226 385.44686403 -0.01586078 395.81034851 -0.02090836 C407.59066403 -0.0266173 419.37095864 -0.02502444 431.15127254 -0.01434687 C437.1667215 -0.009075 443.18212594 -0.00705907 449.19757462 -0.01364517 C454.69710006 -0.01957553 460.19653941 -0.01637803 465.69605696 -0.00569007 C467.69264186 -0.0034436 469.68923393 -0.00461996 471.68581426 -0.00944164 C474.38599542 -0.01546564 477.08587617 -0.00934416 479.78604126 0 C480.57305802 -0.00468233 481.36007477 -0.00936466 482.17094052 -0.01418889 C485.95475382 0.01223659 487.66427511 0.09918527 490.89302063 2.25168228 C491.19360979 4.78556946 491.29509606 7.076691 491.27054405 9.61371231 C491.27490437 10.38531921 491.2792647 11.1569261 491.28375715 11.95191503 C491.29479763 14.56486931 491.28425091 17.17730514 491.27397156 19.7902565 C491.27742466 21.67146896 491.28218686 23.55267941 491.28815329 25.43388557 C491.30074079 30.6246778 491.29445789 35.81530573 491.28519464 41.00609875 C491.27843603 46.59580442 491.28886946 52.18548086 491.2971344 57.77518082 C491.31050815 68.73383343 491.30757782 79.69242458 491.29889648 90.65107965 C491.29213462 99.55357654 491.2911967 108.45605613 491.29446793 117.35855484 C491.29492763 118.62327114 491.29538732 119.88798744 491.29586095 121.19102848 C491.29682008 123.75988595 491.29779272 126.32874342 491.29877873 128.89760089 C491.30709891 152.3250865 491.29845532 175.75253258 491.28275094 199.18001053 C491.26851333 220.58217432 491.26978718 241.98428458 491.28413391 263.38644791 C491.30018585 287.41291345 491.30651922 311.4393455 491.29729712 335.46581841 C491.29634142 338.02548217 491.29539831 340.58514595 491.29446793 343.14480972 C491.2940051 344.40437261 491.29354227 345.66393549 491.29306542 346.96166694 C491.29046989 355.85845587 491.29485863 364.75522587 491.30190659 373.65201187 C491.31030095 384.48707574 491.30808508 395.32207437 491.29206435 406.15713072 C491.28415374 411.69045702 491.28113729 417.22367436 491.29101181 422.75699997 C491.29990176 427.81492408 491.29512078 432.87263745 491.27907915 437.93054223 C491.27570701 439.76765045 491.27747938 441.60477621 491.28470652 443.44187331 C491.29373046 445.92472526 491.28457433 448.40683991 491.27054405 450.88965225 C491.27756755 451.61540805 491.28459105 452.34116385 491.29182738 453.08891225 C491.26906812 455.08170128 491.26906812 455.08170128 490.89302063 458.25168228 C487.12003077 460.76700885 484.15493618 460.52935717 479.78604126 460.50336456 C478.94604517 460.50627144 478.10604908 460.50917833 477.24059856 460.5121733 C474.40111649 460.51952314 471.56184715 460.51250683 468.72236633 460.50564957 C466.67601313 460.50795203 464.62966076 460.5111271 462.58331013 460.51510406 C456.94067711 460.52349017 451.29811133 460.51930954 445.655478 460.51313162 C439.57770222 460.50862367 433.49993836 460.51558262 427.42216492 460.52109146 C416.19749166 460.52948915 404.97284006 460.52873555 393.74816725 460.52326852 C383.37975221 460.51824316 373.01134508 460.51692132 362.64292908 460.51931381 C361.61244946 460.51954297 361.61244946 460.51954297 360.56115208 460.51977675 C357.77265387 460.5203994 354.98415568 460.5210362 352.19565748 460.52169628 C326.02190011 460.52781828 299.84815649 460.52226103 273.67440124 460.51150249 C250.40579566 460.50201083 227.13721196 460.50286007 203.86860657 460.51242447 C177.74360792 460.523127 151.61862141 460.52738416 125.49362087 460.52119994 C122.71011798 460.52055848 119.92661508 460.5199328 117.14311218 460.51931381 C116.45771131 460.51915566 115.77231045 460.5189975 115.06613985 460.51883456 C104.70265416 460.51655682 94.33917723 460.51922534 83.97569275 460.52427292 C72.19537723 460.52998186 60.41508262 460.528389 48.63476872 460.51771143 C42.61931976 460.51243957 36.60391532 460.51042363 30.58846664 460.51700974 C25.0889412 460.5229401 19.58950185 460.51974259 14.0899843 460.50905463 C12.0933994 460.50680817 10.09680733 460.50798452 8.100227 460.51280621 C5.40004584 460.5188302 2.70016509 460.51270873 0 460.50336456 C-1.18052513 460.51038806 -1.18052513 460.51038806 -2.38489926 460.51755345 C-6.16871256 460.49112798 -7.87823385 460.4041793 -11.10697937 458.25168228 C-11.40544327 455.13698652 -11.50654279 452.22064256 -11.48120117 449.10312271 C-11.48517558 448.14319019 -11.48914998 447.18325767 -11.49324483 446.19423628 C-11.50291769 442.95737775 -11.49101957 439.72095086 -11.47929382 436.48410416 C-11.48172014 434.17181103 -11.4854379 431.85951894 -11.49035645 429.54722977 C-11.49979096 423.25190451 -11.49031849 416.95673403 -11.47702432 410.66142082 C-11.46574041 404.08664922 -11.46981495 397.51188558 -11.47177124 390.93710709 C-11.4731982 379.89399132 -11.4616232 368.85093357 -11.44316101 357.80783463 C-11.42415587 346.43704757 -11.41707317 335.06633174 -11.4226532 323.69552994 C-11.4293513 310.00578001 -11.4260727 296.31607781 -11.41354942 282.62633133 C-11.40889367 277.39189952 -11.40803379 272.15748707 -11.41013527 266.92305374 C-11.41201304 260.76388155 -11.40395376 254.60480132 -11.38807487 248.4456501 C-11.38381687 246.17923678 -11.38299157 243.91281416 -11.38576508 241.64639854 C-11.38896573 238.56424395 -11.37995875 235.4823678 -11.36767578 232.40024185 C-11.3714551 231.49305892 -11.37523443 230.585876 -11.37912828 229.65120268 C-11.33530807 223.48001098 -11.33530807 223.48001098 -9.10697937 221.25168228 C-8.11697937 221.25168228 -7.12697937 221.25168228 -6.10697937 221.25168228 C-6.10697937 218.28168228 -6.10697937 215.31168228 -6.10697937 212.25168228 C-7.75697937 211.59168228 -9.40697937 210.93168228 -11.10697937 210.25168228 C-11.23197937 206.87668228 -11.23197937 206.87668228 -11.10697937 203.25168228 C-10.11697937 202.26168228 -10.11697937 202.26168228 -9.10697937 201.25168228 C-8.11697937 201.25168228 -7.12697937 201.25168228 -6.10697937 201.25168228 C-6.10697937 198.28168228 -6.10697937 195.31168228 -6.10697937 192.25168228 C-7.75697937 191.59168228 -9.40697937 190.93168228 -11.10697937 190.25168228 C-11.17697498 165.77408919 -11.22992112 141.29651104 -11.26241589 116.81883812 C-11.27790294 105.45413371 -11.29902748 94.08949138 -11.33329773 82.72482681 C-11.36314391 72.82256908 -11.38254099 62.9203563 -11.38924485 53.01805484 C-11.39316524 47.77197195 -11.40241665 42.52601767 -11.42416954 37.27997589 C-11.44445925 32.34705879 -11.45082848 27.41432388 -11.44630241 22.48136902 C-11.447131 20.66645952 -11.45314123 18.85154423 -11.46459579 17.03667068 C-11.47942264 14.56735253 -11.47596938 12.0987311 -11.46774292 9.62939835 C-11.47648144 8.90372575 -11.48521997 8.17805315 -11.4942233 7.43039048 C-11.47612286 5.43384361 -11.47612286 5.43384361 -11.10697937 2.25168228 C-7.33398951 -0.26364429 -4.36889492 -0.02599261 0 0 Z " fill="#EDEDED" transform="translate(16.106979370117188,25.74831771850586)"/>
<path d="M0 0 C0.83999609 -0.00290688 1.67999218 -0.00581376 2.5454427 -0.00880873 C5.38492477 -0.01615858 8.22419411 -0.00914227 11.06367493 -0.002285 C13.11002813 -0.00458747 15.1563805 -0.00776254 17.20273113 -0.01173949 C22.84536415 -0.0201256 28.48792993 -0.01594498 34.13056326 -0.00976706 C40.20833904 -0.00525911 46.2861029 -0.01221806 52.36387634 -0.0177269 C63.5885496 -0.02612459 74.8132012 -0.02537099 86.03787401 -0.01990396 C96.40628905 -0.0148786 106.77469618 -0.01355676 117.14311218 -0.01594925 C118.1735918 -0.0161784 118.1735918 -0.0161784 119.22488918 -0.01641219 C122.01338738 -0.01703484 124.80188558 -0.01767163 127.59038378 -0.01833172 C153.76414115 -0.02445371 179.93788477 -0.01889646 206.11164002 -0.00813792 C229.3802456 0.00135373 252.6488293 0.00050449 275.91743469 -0.00905991 C302.04243334 -0.01976243 328.16741985 -0.02401959 354.29242039 -0.01783538 C357.07592328 -0.01719392 359.85942618 -0.01656824 362.64292908 -0.01594925 C363.32832995 -0.01579109 364.01373081 -0.01563294 364.71990141 -0.01546999 C375.0833871 -0.01319226 385.44686403 -0.01586078 395.81034851 -0.02090836 C407.59066403 -0.0266173 419.37095864 -0.02502444 431.15127254 -0.01434687 C437.1667215 -0.009075 443.18212594 -0.00705907 449.19757462 -0.01364517 C454.69710006 -0.01957553 460.19653941 -0.01637803 465.69605696 -0.00569007 C467.69264186 -0.0034436 469.68923393 -0.00461996 471.68581426 -0.00944164 C474.38599542 -0.01546564 477.08587617 -0.00934416 479.78604126 0 C480.57305802 -0.00468233 481.36007477 -0.00936466 482.17094052 -0.01418889 C485.95475382 0.01223659 487.66427511 0.09918527 490.89302063 2.25168228 C491.19360979 4.78556946 491.29509606 7.076691 491.27054405 9.61371231 C491.27490437 10.38531921 491.2792647 11.1569261 491.28375715 11.95191503 C491.29479763 14.56486931 491.28425091 17.17730514 491.27397156 19.7902565 C491.27742466 21.67146896 491.28218686 23.55267941 491.28815329 25.43388557 C491.30074079 30.6246778 491.29445789 35.81530573 491.28519464 41.00609875 C491.27843603 46.59580442 491.28886946 52.18548086 491.2971344 57.77518082 C491.31050815 68.73383343 491.30757782 79.69242458 491.29889648 90.65107965 C491.29213462 99.55357654 491.2911967 108.45605613 491.29446793 117.35855484 C491.29492763 118.62327114 491.29538732 119.88798744 491.29586095 121.19102848 C491.29682008 123.75988595 491.29779272 126.32874342 491.29877873 128.89760089 C491.30709891 152.3250865 491.29845532 175.75253258 491.28275094 199.18001053 C491.26851333 220.58217432 491.26978718 241.98428458 491.28413391 263.38644791 C491.30018585 287.41291345 491.30651922 311.4393455 491.29729712 335.46581841 C491.29634142 338.02548217 491.29539831 340.58514595 491.29446793 343.14480972 C491.2940051 344.40437261 491.29354227 345.66393549 491.29306542 346.96166694 C491.29046989 355.85845587 491.29485863 364.75522587 491.30190659 373.65201187 C491.31030095 384.48707574 491.30808508 395.32207437 491.29206435 406.15713072 C491.28415374 411.69045702 491.28113729 417.22367436 491.29101181 422.75699997 C491.29990176 427.81492408 491.29512078 432.87263745 491.27907915 437.93054223 C491.27570701 439.76765045 491.27747938 441.60477621 491.28470652 443.44187331 C491.29373046 445.92472526 491.28457433 448.40683991 491.27054405 450.88965225 C491.27756755 451.61540805 491.28459105 452.34116385 491.29182738 453.08891225 C491.26906812 455.08170128 491.26906812 455.08170128 490.89302063 458.25168228 C487.12003077 460.76700885 484.15493618 460.52935717 479.78604126 460.50336456 C478.94604517 460.50627144 478.10604908 460.50917833 477.24059856 460.5121733 C474.40111649 460.51952314 471.56184715 460.51250683 468.72236633 460.50564957 C466.67601313 460.50795203 464.62966076 460.5111271 462.58331013 460.51510406 C456.94067711 460.52349017 451.29811133 460.51930954 445.655478 460.51313162 C439.57770222 460.50862367 433.49993836 460.51558262 427.42216492 460.52109146 C416.19749166 460.52948915 404.97284006 460.52873555 393.74816725 460.52326852 C383.37975221 460.51824316 373.01134508 460.51692132 362.64292908 460.51931381 C361.61244946 460.51954297 361.61244946 460.51954297 360.56115208 460.51977675 C357.77265387 460.5203994 354.98415568 460.5210362 352.19565748 460.52169628 C326.02190011 460.52781828 299.84815649 460.52226103 273.67440124 460.51150249 C250.40579566 460.50201083 227.13721196 460.50286007 203.86860657 460.51242447 C177.74360792 460.523127 151.61862141 460.52738416 125.49362087 460.52119994 C122.71011798 460.52055848 119.92661508 460.5199328 117.14311218 460.51931381 C116.45771131 460.51915566 115.77231045 460.5189975 115.06613985 460.51883456 C104.70265416 460.51655682 94.33917723 460.51922534 83.97569275 460.52427292 C72.19537723 460.52998186 60.41508262 460.528389 48.63476872 460.51771143 C42.61931976 460.51243957 36.60391532 460.51042363 30.58846664 460.51700974 C25.0889412 460.5229401 19.58950185 460.51974259 14.0899843 460.50905463 C12.0933994 460.50680817 10.09680733 460.50798452 8.100227 460.51280621 C5.40004584 460.5188302 2.70016509 460.51270873 0 460.50336456 C-1.18052513 460.51038806 -1.18052513 460.51038806 -2.38489926 460.51755345 C-6.16871256 460.49112798 -7.87823385 460.4041793 -11.10697937 458.25168228 C-11.40544327 455.13698652 -11.50654279 452.22064256 -11.48120117 449.10312271 C-11.48517558 448.14319019 -11.48914998 447.18325767 -11.49324483 446.19423628 C-11.50291769 442.95737775 -11.49101957 439.72095086 -11.47929382 436.48410416 C-11.48172014 434.17181103 -11.4854379 431.85951894 -11.49035645 429.54722977 C-11.49979096 423.25190451 -11.49031849 416.95673403 -11.47702432 410.66142082 C-11.46574041 404.08664922 -11.46981495 397.51188558 -11.47177124 390.93710709 C-11.4731982 379.89399132 -11.4616232 368.85093357 -11.44316101 357.80783463 C-11.42415587 346.43704757 -11.41707317 335.06633174 -11.4226532 323.69552994 C-11.4293513 310.00578001 -11.4260727 296.31607781 -11.41354942 282.62633133 C-11.40889367 277.39189952 -11.40803379 272.15748707 -11.41013527 266.92305374 C-11.41201304 260.76388155 -11.40395376 254.60480132 -11.38807487 248.4456501 C-11.38381687 246.17923678 -11.38299157 243.91281416 -11.38576508 241.64639854 C-11.38896573 238.56424395 -11.37995875 235.4823678 -11.36767578 232.40024185 C-11.3714551 231.49305892 -11.37523443 230.585876 -11.37912828 229.65120268 C-11.33530807 223.48001098 -11.33530807 223.48001098 -9.10697937 221.25168228 C-6.66947937 220.93918228 -6.66947937 220.93918228 -4.10697937 221.25168228 C-3.11697937 222.24168228 -2.12697937 223.23168228 -1.10697937 224.25168228 C-1.10697937 298.50168228 -1.10697937 372.75168228 -1.10697937 449.25168228 C157.95302063 449.25168228 317.01302063 449.25168228 480.89302063 449.25168228 C480.89302063 322.20168228 480.89302063 195.15168228 480.89302063 64.25168228 C366.86063072 64.84566596 366.86063072 64.84566596 252.82929993 65.60300064 C230.78913879 65.67074966 230.78913879 65.67074966 220.47561646 65.68333817 C213.26202145 65.69733066 206.05016769 65.75236224 198.83706665 65.8353157 C190.51634213 65.93086564 182.19728809 65.97420819 173.87601094 65.95335654 C169.61924195 65.94432528 165.36620449 65.95853278 161.11012208 66.03990924 C134.55953745 66.52352839 134.55953745 66.52352839 128.54104042 60.99118614 C125.98290142 57.93901408 124.21197568 54.73946763 122.68643248 51.07327282 C121.52338059 48.40302745 119.8842511 46.12091191 118.20552063 43.75168228 C117.59192688 42.81582291 116.97833313 41.87996353 116.34614563 40.91574478 C112.11076551 34.52479106 107.66050589 28.27588942 103.26338196 21.99582291 C102.58557678 21.02580338 101.90777161 20.05578384 101.20942688 19.05636978 C100.59526917 18.17964615 99.98111145 17.30292252 99.3483429 16.3996315 C97.89302063 14.25168228 97.89302063 14.25168228 96.89302063 12.25168228 C64.55302063 11.92168228 32.21302063 11.59168228 -1.10697937 11.25168228 C-1.08377625 23.99406509 -1.06057312 36.73644791 -1.03666687 49.86496353 C-1.02645279 57.91769871 -1.01674264 65.97042922 -1.00932312 74.02316666 C-0.99744145 86.8163958 -0.9834501 99.60959866 -0.95610046 112.40280533 C-0.9361941 121.71873166 -0.92326948 131.03463673 -0.91880238 140.35058373 C-0.91619033 145.28535384 -0.91003224 150.22006312 -0.89551926 155.15481377 C-0.88197882 159.79633316 -0.87774954 164.43776647 -0.88076401 169.07930374 C-0.88021225 170.78574656 -0.87621379 172.49219216 -0.86856842 174.19861794 C-0.85866245 176.52295695 -0.86099443 178.84696812 -0.86647034 181.17131424 C-0.86462675 182.47380773 -0.86278316 183.77630121 -0.86088371 185.1182642 C-1.10697937 188.25168228 -1.10697937 188.25168228 -3.10697937 191.25168228 C-5.54447937 192.06418228 -5.54447937 192.06418228 -8.10697937 192.25168228 C-9.09697937 191.59168228 -10.08697937 190.93168228 -11.10697937 190.25168228 C-11.40820019 187.71713641 -11.51137653 185.42506414 -11.4879303 182.88742447 C-11.49261027 182.11941891 -11.49729024 181.35141335 -11.50211203 180.56013489 C-11.5141297 177.97276947 -11.50457868 175.38592713 -11.49516296 172.79855728 C-11.49922567 170.94931096 -11.50456585 169.10006706 -11.51109314 167.25082779 C-11.52480841 162.21785443 -11.51945077 157.18506487 -11.50995588 152.15208817 C-11.50238103 146.89459092 -11.50939882 141.63710981 -11.51411438 136.37961197 C-11.51957829 127.54917946 -11.51236366 118.71882213 -11.49809265 109.88840103 C-11.48176494 99.66707586 -11.48705299 89.44593019 -11.50357187 79.22460938 C-11.51716865 70.46196197 -11.51911526 61.69936872 -11.51125586 52.93671417 C-11.50656938 47.69739462 -11.50598117 42.45815955 -11.51586533 37.21884537 C-11.52450646 32.29407183 -11.51856553 27.36953059 -11.50118256 22.44478226 C-11.4972024 20.63311016 -11.49837771 18.82141865 -11.50497055 17.00975418 C-11.51311612 14.54488202 -11.50295012 12.08076366 -11.4879303 9.61594009 C-11.49462246 8.89163174 -11.50131463 8.16732338 -11.50820959 7.42106628 C-11.48450279 5.42825699 -11.48450279 5.42825699 -11.10697937 2.25168228 C-7.33398951 -0.26364429 -4.36889492 -0.02599261 0 0 Z " fill="#020303" transform="translate(16.106979370117188,25.74831771850586)"/>
<path d="M0 0 C2.875 0.75 2.875 0.75 3.875 1.75 C3.9678726 3.16225046 3.99246772 4.57908934 3.98852539 5.99438477 C3.98844986 6.89524307 3.98837433 7.79610138 3.98829651 8.72425842 C3.98313522 9.70341721 3.97797394 10.68257599 3.97265625 11.69140625 C3.9712413 12.68881332 3.96982635 13.6862204 3.96836853 14.71385193 C3.96275114 17.91343124 3.95019571 21.11294169 3.9375 24.3125 C3.93248724 26.47591045 3.92792395 28.63932199 3.92382812 30.80273438 C3.91277607 36.11851325 3.89602104 41.43425171 3.875 46.75 C4.97223389 46.74111755 6.06946777 46.73223511 7.19995117 46.7230835 C17.55756681 46.6418767 27.91511757 46.58197652 38.27297974 46.54275131 C43.59764917 46.52190702 48.92206089 46.4936469 54.24658203 46.44824219 C59.38834149 46.40467206 64.52985358 46.38083915 69.67178345 46.37049103 C71.63013602 46.36311971 73.58847559 46.34872523 75.54672241 46.32707977 C78.2970672 46.29789732 81.04639945 46.29405018 83.796875 46.29589844 C85.00205528 46.27432678 85.00205528 46.27432678 86.23158264 46.25231934 C91.85945192 46.29304506 96.18136726 47.58134405 100.875 50.75 C104.78376403 55.12218814 105.46322249 58.87174391 105.37109375 64.5625 C105.37254898 65.2944458 105.37400421 66.0263916 105.37550354 66.78051758 C105.37385166 68.32019044 105.36237032 69.85988105 105.34155273 71.39941406 C105.31257961 73.74355886 105.32096078 76.08544016 105.33398438 78.4296875 C105.32774618 79.93230255 105.31935459 81.43491053 105.30859375 82.9375 C105.31152939 83.63141846 105.31446503 84.32533691 105.31748962 85.0402832 C105.2288477 89.65881254 104.28101768 92.81767728 101.875 96.75 C96.34643425 101.99504956 91.59499474 101.89581037 84.25097656 101.86352539 C83.38232468 101.86367142 82.51367279 101.86381744 81.61869812 101.8639679 C78.75098157 101.86327191 75.88333019 101.85549415 73.015625 101.84765625 C71.0259403 101.84579096 69.03625515 101.84436758 67.04656982 101.84336853 C61.81214121 101.83955212 56.57774039 101.82972929 51.34332275 101.81866455 C46.00102108 101.80843162 40.65871491 101.80386687 35.31640625 101.79882812 C24.83592333 101.78810625 14.35546833 101.77051652 3.875 101.75 C3.875 109.67 3.875 117.59 3.875 125.75 C6.73353889 125.74000725 6.73353889 125.74000725 9.64982605 125.72981262 C27.58723357 125.66906358 45.52462031 125.62387703 63.46210766 125.59456348 C72.68449725 125.57909176 81.90681007 125.55799639 91.12915039 125.52368164 C99.16693924 125.49378865 107.20467249 125.47442722 115.24251539 125.46773452 C119.49887144 125.46382208 123.75506843 125.454621 128.01137352 125.43280983 C132.01765518 125.41244624 136.02371225 125.40616592 140.03004074 125.41067696 C141.50021777 125.4098517 142.97040232 125.40388517 144.44053459 125.39238358 C146.44871967 125.3774433 148.45702528 125.38283738 150.46525574 125.38923645 C151.58892138 125.38647107 152.71258703 125.38370569 153.87030315 125.38085651 C158.54683722 125.95539437 161.06130172 127.82328807 164.125 131.3125 C166.97924818 135.28805996 167.0488929 138.18856923 167.078125 142.953125 C167.08382507 143.66853455 167.08952515 144.38394409 167.09539795 145.12103271 C167.1048507 146.63747682 167.11138303 148.15394148 167.11523438 149.67041016 C167.12490467 151.97725973 167.15590897 154.2832047 167.1875 156.58984375 C167.19403389 158.06509889 167.19928284 159.54036039 167.203125 161.015625 C167.2154718 161.7002179 167.2278186 162.38481079 167.24053955 163.09014893 C167.21931753 167.71327401 166.29038025 170.82050079 163.875 174.75 C159.23444332 179.04251493 155.95583786 179.87537579 149.74372864 179.87025452 C148.46065323 179.87162918 147.17757782 179.87300385 145.85562134 179.87442017 C144.43084694 179.87088101 143.00607277 179.8672462 141.58129883 179.86352539 C140.08333844 179.86324337 138.58537791 179.86340155 137.0874176 179.8639679 C133.01746505 179.86425527 128.94754186 179.85836815 124.87759614 179.85139394 C120.62548613 179.84515051 116.37337548 179.84455582 112.1212616 179.84336853 C104.06776404 179.84025814 96.01428002 179.83204868 87.96078843 179.82201904 C78.79281776 179.81084885 69.62484645 179.80534516 60.45687068 179.80032361 C41.59623922 179.78986583 22.73562119 179.77207103 3.875 179.75 C3.875 187.67 3.875 195.59 3.875 203.75 C7.91741943 203.72643433 7.91741943 203.72643433 12.04150391 203.70239258 C20.95021835 203.65266105 29.85893897 203.61953673 38.76775551 203.59456348 C44.16865004 203.57891431 49.56940223 203.55768948 54.97021484 203.52368164 C60.18327609 203.49106183 65.39620049 203.47314136 70.60935593 203.46536827 C72.59725473 203.4598295 74.58514613 203.44901362 76.5729866 203.43280983 C79.35953142 203.41100086 82.14551233 203.40803454 84.93212891 203.40942383 C85.75212372 203.398638 86.57211853 203.38785217 87.41696167 203.3767395 C92.31097635 203.40310437 95.62750619 204.05774817 99.875 206.75 C104.2406984 211.5876658 105.03913374 214.59791886 105.078125 220.953125 C105.08382507 221.66853455 105.08952515 222.38394409 105.09539795 223.12103271 C105.1048507 224.63747682 105.11138303 226.15394148 105.11523438 227.67041016 C105.12490467 229.97725973 105.15590897 232.2832047 105.1875 234.58984375 C105.19403389 236.06509889 105.19928284 237.54036039 105.203125 239.015625 C105.2154718 239.7002179 105.2278186 240.38481079 105.24053955 241.09014893 C105.21412335 246.84480407 103.6154231 250.73763579 99.875 255.0625 C95.79439436 258.50551101 91.23411837 257.8851502 86.1809082 257.86352539 C85.2928952 257.86367142 84.4048822 257.86381744 83.48995972 257.8639679 C80.55187546 257.86327068 77.61385444 257.85548718 74.67578125 257.84765625 C72.63982681 257.84579139 70.60387192 257.84436781 68.56791687 257.84336853 C63.20688643 257.83954869 57.84588303 257.82972292 52.48486328 257.81866455 C47.0153032 257.80843899 41.54573876 257.80386845 36.07617188 257.79882812 C25.34243411 257.7881002 14.60872354 257.77050769 3.875 257.75 C3.875 270.29 3.875 282.83 3.875 295.75 C10.05992187 295.72679687 16.24484375 295.70359375 22.6171875 295.6796875 C26.52734793 295.66947263 30.43749198 295.659845 34.34765625 295.65234375 C40.55879111 295.64037203 46.76986721 295.6261852 52.98095703 295.59912109 C57.98650889 295.57744562 62.99199777 295.56544259 67.99759293 295.56024551 C69.91063555 295.55654021 71.8236746 295.54930504 73.73669052 295.53853989 C76.40900976 295.52409527 79.0810662 295.52201909 81.75341797 295.52294922 C82.55039093 295.51575867 83.34736389 295.50856812 84.16848755 295.50115967 C89.64689568 295.52189568 89.64689568 295.52189568 91.875 297.75 C92.1875 300.1875 92.1875 300.1875 91.875 302.75 C90.595047 304.38634682 90.595047 304.38634682 88.875 305.75 C85.89296819 306.04635615 83.11981349 306.15962782 80.13671875 306.13818359 C79.24377106 306.14344055 78.35082336 306.14869751 77.43081665 306.15411377 C74.47453399 306.16733453 71.51878829 306.15856831 68.5625 306.1484375 C66.51131079 306.15045764 64.46012229 306.15336857 62.40893555 306.15713501 C58.10816618 306.16156118 53.80758361 306.15511782 49.50683594 306.14111328 C43.98836905 306.12402131 38.47033986 306.13386092 32.95188904 306.15183067 C28.71574595 306.16266055 24.47970698 306.15922581 20.24356079 306.1514473 C18.20854643 306.14944309 16.17352268 306.15191227 14.13851929 306.15888596 C11.29651779 306.16648729 8.4552295 306.1549147 5.61328125 306.13818359 C4.76851227 306.14425629 3.92374329 306.15032898 3.05337524 306.15658569 C-2.63595792 306.09439505 -2.63595792 306.09439505 -4.84098303 304.54156399 C-6.55471491 302.15042711 -6.50095206 300.63526354 -6.50252342 297.70402527 C-6.51034666 296.65488355 -6.51816991 295.60574183 -6.52623022 294.52480793 C-6.51953805 293.36830832 -6.51284589 292.21180872 -6.50595093 291.02026367 C-6.5106309 289.79475139 -6.51531087 288.5692391 -6.52013266 287.30659008 C-6.53005226 283.89851343 -6.52645003 280.49093037 -6.51717401 277.08288336 C-6.51040412 273.41002518 -6.52085447 269.73721108 -6.52911377 266.06436157 C-6.54247541 258.86675387 -6.53956258 251.66923985 -6.53087585 244.47162843 C-6.52410924 238.62360504 -6.52317814 232.77560796 -6.5264473 226.92758179 C-6.526907 226.09624605 -6.52736669 225.26491032 -6.52784032 224.40838259 C-6.52879947 222.71970438 -6.52977211 221.03102618 -6.5307581 219.34234798 C-6.53931911 203.49602291 -6.52946672 187.64974984 -6.513357 171.8034333 C-6.49995317 158.19738 -6.50228106 144.59140348 -6.51611328 130.98535156 C-6.53215656 115.19693518 -6.53849507 99.40856442 -6.52927649 83.62014103 C-6.52832081 81.93756676 -6.5273777 80.25499249 -6.5264473 78.57241821 C-6.52598447 77.74449223 -6.52552164 76.91656625 -6.52504479 76.0635516 C-6.52245114 70.22044704 -6.52683397 64.37737134 -6.53388596 58.53427124 C-6.54228726 51.41648631 -6.54004978 44.29880068 -6.52404372 37.18102717 C-6.51614245 33.54725092 -6.51310076 29.9136404 -6.52299118 26.27986526 C-6.53353563 22.34639459 -6.52097198 18.41319715 -6.50595093 14.47973633 C-6.51264309 13.32323672 -6.51933526 12.16673712 -6.52623022 10.97519207 C-6.51840697 9.92605035 -6.51058373 8.87690863 -6.50252342 7.79597473 C-6.50203637 6.88741132 -6.50154931 5.9788479 -6.50104749 5.04275227 C-6.125 2.75 -6.125 2.75 -4.79671729 0.91900158 C-3.125 -0.25 -3.125 -0.25 0 0 Z " fill="#050503" transform="translate(277.125,134.25)"/>
<path d="M0 0 C4.17088677 3.52391754 8.17839236 7.22782215 12.125 11 C12.70636719 11.53834473 13.28773438 12.07668945 13.88671875 12.63134766 C16.67730147 15.37738192 17.89468217 16.67455286 18.4921875 20.6484375 C18 23.375 18 23.375 16 25.375 C13.80859375 25.93359375 13.80859375 25.93359375 11 25.375 C8.42430472 23.31333322 6.27999084 20.87258429 4.0625 18.4375 C-2.68504899 11.36903505 -9.4632715 6.0856285 -18 1.375 C-19.29550781 0.64410156 -19.29550781 0.64410156 -20.6171875 -0.1015625 C-40.75037876 -10.32495869 -65.52315998 -11.91843529 -86.91308594 -5.00683594 C-109.61711286 2.78809984 -128.26261721 18.70721379 -138.93603516 40.265625 C-140.8958082 44.55034619 -142.49747619 48.91077059 -144 53.375 C-144.3403125 54.37402344 -144.680625 55.37304688 -145.03125 56.40234375 C-151.19064067 78.10278958 -146.65200578 101.81319483 -136.40625 121.42578125 C-131.51020432 130.1830266 -126.03988905 138.25466923 -118 144.375 C-117.92523438 143.50359375 -117.85046875 142.6321875 -117.7734375 141.734375 C-116.54214703 130.58033193 -113.18155764 120.36628886 -105 112.375 C-97.91909869 106.92612798 -92.11021592 104.01059136 -83 104.375 C-83.40992187 103.72273438 -83.81984375 103.07046875 -84.2421875 102.3984375 C-84.78101562 101.52445312 -85.31984375 100.65046875 -85.875 99.75 C-86.40867187 98.89148438 -86.94234375 98.03296875 -87.4921875 97.1484375 C-90.98085264 90.73146276 -91.31929467 85.08924976 -91.3359375 77.9375 C-91.3459227 76.44005249 -91.3459227 76.44005249 -91.35610962 74.91235352 C-91.36620632 72.80779862 -91.37092757 70.7032119 -91.37060547 68.59863281 C-91.37498564 65.38553146 -91.41135677 62.1737968 -91.44921875 58.9609375 C-91.45508618 56.91146301 -91.45905607 54.86198203 -91.4609375 52.8125 C-91.47530853 51.85609619 -91.48967957 50.89969238 -91.50448608 49.91430664 C-91.45571177 42.77138437 -89.73777819 39.24428199 -84.75341797 34.02050781 C-81.12721468 31.85340281 -78.03635432 31.91429054 -73.9453125 32.046875 C-72.34375308 32.05188809 -70.74218975 32.05575548 -69.140625 32.05859375 C-66.64803251 32.08534874 -64.15701619 32.12420563 -61.66503906 32.18603516 C-51.3914579 32.40615394 -43.66443724 31.82919623 -34.88748169 26.09466553 C-31.87494934 24.1481563 -30.31539638 23.35935056 -26.67382812 23.54003906 C-24 24.375 -24 24.375 -22.5390625 25.84375 C-19.12544907 33.42955763 -18.5869948 42.20362102 -20 50.375 C-21.31640625 53.33203125 -21.31640625 53.33203125 -22.9375 56 C-26.91307781 62.6878879 -26.69099176 69.346653 -26.68530273 76.92822266 C-26.72727463 85.55676148 -28.0115257 93.36865763 -33.1875 100.5 C-33.98220703 101.61761719 -33.98220703 101.61761719 -34.79296875 102.7578125 C-35.19128906 103.29148437 -35.58960938 103.82515625 -36 104.375 C-35.0925 104.25125 -34.185 104.1275 -33.25 104 C-25.54135089 104.03127241 -18.02699363 109.03308548 -12.5625 114.125 C-6.10189635 121.1105277 -3.03928639 129.19182615 -2.4375 138.5625 C-2.35371094 139.83480469 -2.26992187 141.10710937 -2.18359375 142.41796875 C-2.12300781 143.39378906 -2.06242188 144.36960937 -2 145.375 C13.75166554 131.10313603 26.0350474 110.59866885 27.17919922 88.99072266 C27.92719801 74.56084675 27.92719801 74.56084675 26 60.375 C25.8125 56.75 25.8125 56.75 26 53.375 C26.66 52.715 27.32 52.055 28 51.375 C31.625 51.75 31.625 51.75 35 52.375 C43.07082954 70.92434353 39.84160828 95.33513334 32.75 113.75 C21.92098893 140.50436458 2.76644162 158.37139681 -23 170.375 C-24.12792969 170.90222656 -25.25585938 171.42945313 -26.41796875 171.97265625 C-50.08647164 181.23873317 -76.14467096 178.85942969 -99.375 169.6875 C-123.51161447 158.4771293 -142.34243557 139.22031464 -151.79345703 114.28125 C-153.41659863 109.69926767 -154.75621427 105.07318659 -156 100.375 C-156.36931641 99.05048828 -156.36931641 99.05048828 -156.74609375 97.69921875 C-162.10425526 74.52978934 -156.82665383 49.5754415 -145 29.375 C-144.45601562 28.3953125 -143.91203125 27.415625 -143.3515625 26.40625 C-129.36269194 2.65928924 -106.14344327 -11.29740805 -80.0859375 -18.10986328 C-52.94660741 -24.81210889 -21.93202483 -16.81102064 0 0 Z " fill="#060503" transform="translate(201,153.625)"/>
<path d="M0 0 C3.97770321 3.44772269 7.62496921 7.22699292 11.13745117 11.1472168 C13.80354243 13.99854098 15.16110411 15.30066994 19.11328125 15.73828125 C19.97566406 15.61453125 20.83804688 15.49078125 21.7265625 15.36328125 C22.2628125 16.47703125 22.7990625 17.59078125 23.3515625 18.73828125 C25.04883962 21.75094814 25.49741294 22.26703844 28.8515625 23.67578125 C29.8003125 23.90265625 30.7490625 24.12953125 31.7265625 24.36328125 C32.3865625 25.02328125 33.0465625 25.68328125 33.7265625 26.36328125 C33.66796875 28.53515625 33.66796875 28.53515625 33.2890625 31.11328125 C32.77701277 35.13985416 33.02554125 38.35744552 33.7265625 42.36328125 C32.7365625 43.35328125 32.7365625 43.35328125 31.7265625 44.36328125 C31.55645641 47.42519085 31.42449627 50.23576524 32.22338867 53.21777344 C37.20788279 74.47140485 31.28997057 97.86334436 20.7265625 116.36328125 C15.8394248 124.21915979 9.65310254 131.24071461 2.7265625 137.36328125 C2.3965625 137.36328125 2.0665625 137.36328125 1.7265625 137.36328125 C1.68789063 135.89568359 1.68789063 135.89568359 1.6484375 134.3984375 C1.31355832 126.65816198 0.73515522 120.15921084 -3.2734375 113.36328125 C-3.8509375 112.33203125 -4.4284375 111.30078125 -5.0234375 110.23828125 C-11.03508214 102.55673533 -18.53816949 97.07504503 -28.3359375 95.61328125 C-29.3053125 95.53078125 -30.2746875 95.44828125 -31.2734375 95.36328125 C-30.20834083 93.21822609 -29.12773671 91.08413488 -28.01953125 88.9609375 C-27.58769531 88.12433594 -27.15585938 87.28773438 -26.7109375 86.42578125 C-26.05931641 85.17474609 -26.05931641 85.17474609 -25.39453125 83.8984375 C-23.54837652 79.72368342 -23.15991368 75.79638825 -23.16796875 71.265625 C-22.95964536 53.14301074 -22.95964536 53.14301074 -17.5859375 44.3203125 C-14.22522644 36.74871051 -15.26357042 26.48800698 -17.7734375 18.80078125 C-18.2684375 17.66640625 -18.7634375 16.53203125 -19.2734375 15.36328125 C-23.82821821 14.92705237 -26.3301482 15.71808832 -30.16407776 18.17399597 C-39.70659186 24.27495826 -48.29427257 24.35966207 -59.3359375 24.05078125 C-61.81305284 23.99878674 -64.2883203 23.95913659 -66.76597595 23.94917297 C-68.29005167 23.941619 -69.81427835 23.90998415 -71.33717346 23.84953308 C-75.17741865 23.81524094 -77.67871445 24.2885149 -80.65795898 26.63989258 C-84.17314046 30.30010441 -85.51432375 32.8144801 -85.56396484 37.88134766 C-85.57672455 38.76972321 -85.58948425 39.65809875 -85.60263062 40.57339478 C-85.60485626 41.52757294 -85.60708191 42.4817511 -85.609375 43.46484375 C-85.6160318 44.45648529 -85.6226886 45.44812683 -85.62954712 46.46981812 C-85.6396692 48.5695409 -85.64436428 50.66929582 -85.64404297 52.76904297 C-85.64839337 55.95595633 -85.68465512 59.14145869 -85.72265625 62.328125 C-85.72852931 64.37369322 -85.73249543 66.41926797 -85.734375 68.46484375 C-85.74874603 69.40687653 -85.76311707 70.3489093 -85.77792358 71.31948853 C-85.72754857 78.74720657 -84.19424797 85.50341492 -79.63851929 91.52383423 C-78.2734375 93.36328125 -78.2734375 93.36328125 -78.2734375 95.36328125 C-78.89089844 95.44964844 -79.50835937 95.53601563 -80.14453125 95.625 C-86.71093968 96.71440414 -91.69985914 98.75488889 -97.2734375 102.36328125 C-98.1603125 102.92015625 -99.0471875 103.47703125 -99.9609375 104.05078125 C-108.84849634 112.93834009 -111.61564372 124.22812014 -112.2734375 136.36328125 C-128.44771609 126.25435713 -137.46401979 105.83401906 -142.0859375 87.98828125 C-146.64570034 64.29332869 -142.22888415 40.78412083 -129.11230469 20.57421875 C-115.65079751 0.87337478 -95.44599017 -12.32690938 -72.2734375 -17.63671875 C-46.35098817 -22.19148874 -20.94315321 -15.78645537 0 0 Z " fill="#EEBE20" transform="translate(196.2734375,162.63671875)"/>
<path d="M0 0 C104.94 0 209.88 0 318 0 C318 14.19 318 28.38 318 43 C281.38770848 43.3845691 244.77600561 43.68880007 208.16210784 43.8681106 C203.83642137 43.88937179 199.51073898 43.91137535 195.18505859 43.93383789 C193.89334868 43.94052681 193.89334868 43.94052681 192.57554361 43.94735085 C178.64441745 44.0212601 164.71448775 44.15525909 150.78407064 44.31159753 C136.48265046 44.47075714 122.18185542 44.5650366 107.87958598 44.59950441 C99.05838798 44.62279583 90.24057159 44.69625053 81.42041519 44.83457994 C75.36621972 44.92467425 69.3137635 44.9515535 63.25894687 44.92952342 C59.76763542 44.91866342 56.28221351 44.93488845 52.79195976 45.02649307 C32.38206038 45.48355669 32.38206038 45.48355669 26.72406292 41.32870555 C22.91757865 37.37158239 20.32888178 32.95109877 17.9890666 28.01318729 C16.64506196 25.27754436 14.92878359 22.87937182 13.125 20.4296875 C12.08211147 18.91229738 11.04037808 17.39411247 10 15.875 C9.20142578 14.71871094 9.20142578 14.71871094 8.38671875 13.5390625 C7.86722656 12.78109375 7.34773437 12.023125 6.8125 11.2421875 C6.36519531 10.5910498 5.91789063 9.93991211 5.45703125 9.26904297 C3.51975392 6.25211008 1.77884509 3.11297891 0 0 Z " fill="#71C1E8" transform="translate(125,37)"/>
<path d="M0 0 C19.65341483 -0.0451037 39.30678792 -0.08196397 58.96024132 -0.10362434 C68.08516667 -0.11394783 77.21005765 -0.12802858 86.33496094 -0.15087891 C94.28592311 -0.17078004 102.23686039 -0.18370863 110.18784678 -0.18817699 C114.39991436 -0.19078994 118.61191072 -0.19695363 122.82395554 -0.21146011 C126.78505256 -0.22499234 130.74604873 -0.22923153 134.70716667 -0.22621536 C136.16408396 -0.22676749 137.62100448 -0.23077085 139.07790184 -0.23841095 C141.06089235 -0.2483035 143.04393646 -0.24479082 145.02694702 -0.24050903 C146.69447053 -0.24327441 146.69447053 -0.24327441 148.39568138 -0.24609566 C151 0 151 0 153 2 C153.25878906 4.94921875 153.25878906 4.94921875 153.265625 8.6875 C153.26753845 9.34580811 153.2694519 10.00411621 153.27142334 10.68237305 C153.2727845 12.0743854 153.26909283 13.46641047 153.26074219 14.85839844 C153.250041 16.99182589 153.26063906 19.12441131 153.2734375 21.2578125 C153.27211589 22.60937686 153.26955347 23.9609407 153.265625 25.3125 C153.26336914 26.54613281 153.26111328 27.77976562 153.25878906 29.05078125 C153 32 153 32 151 34 C148.39568138 34.24609566 148.39568138 34.24609566 145.02694702 34.24050903 C143.75366043 34.24325836 142.48037384 34.24600769 141.16850281 34.24884033 C139.7495413 34.24176156 138.33058074 34.23449193 136.91162109 34.22705078 C135.42366036 34.22648689 133.93569906 34.22680279 132.44773865 34.22793579 C128.40041707 34.22851117 124.3532133 34.21672695 120.30591917 34.20278788 C116.07916576 34.19031135 111.85240985 34.18911245 107.62564087 34.18673706 C99.61813113 34.18051322 91.61067581 34.16409021 83.60319006 34.14403808 C74.48845171 34.12170717 65.37371079 34.11069273 56.2589519 34.10064721 C37.50593079 34.07972473 18.7529843 34.04303725 0 34 C0 22.78 0 11.56 0 0 Z " fill="#EFBF1F" transform="translate(281,270)"/>
<path d="M0 0 C0.99178253 -0.00960754 1.98356506 -0.01921509 3.00540161 -0.02911377 C4.07724701 -0.03336365 5.14909241 -0.03761353 6.25341797 -0.04199219 C7.35982635 -0.04769226 8.46623474 -0.05339233 9.60617065 -0.05926514 C11.95146732 -0.06871857 14.29677729 -0.07525047 16.64208984 -0.07910156 C20.21068938 -0.08877256 23.77870448 -0.11977913 27.34716797 -0.15136719 C29.62841456 -0.1579009 31.90966526 -0.16314992 34.19091797 -0.16699219 C35.25061798 -0.17933899 36.31031799 -0.19168579 37.40213013 -0.20440674 C47.44148644 -0.17459648 54.87093427 1.79421086 62.16748047 8.89941406 C70.10132411 18.08680499 68.55294882 29.7372911 68.12060547 41.16113281 C45.38827755 53.13259544 21.36866178 58.5152779 -3.76074219 50.87207031 C-9.99718453 48.7793623 -16.02562196 46.15398688 -21.87939453 43.16113281 C-22.67861328 42.7628125 -23.47783203 42.36449219 -24.30126953 41.95410156 C-26.86528369 39.04102607 -26.42646337 35.71875342 -26.31689453 32.03613281 C-26.30295654 31.26930176 -26.28901855 30.5024707 -26.2746582 29.71240234 C-26.09253856 24.12067665 -25.49240892 19.18534341 -22.87939453 14.16113281 C-22.56228516 13.54109375 -22.24517578 12.92105469 -21.91845703 12.28222656 C-17.38416741 4.83763048 -8.61327503 0.06742874 0 0 Z " fill="#71BFE6" transform="translate(119.87939453125,266.8388671875)"/>
<path d="M0 0 C11.56961431 -0.04512059 23.13917052 -0.0818409 34.70885277 -0.10362434 C40.08067458 -0.1140774 45.45243327 -0.12826429 50.82421875 -0.15087891 C56.00483448 -0.17255311 61.18538935 -0.18455715 66.36604691 -0.18975449 C68.34607527 -0.19346002 70.32610018 -0.20069562 72.30610275 -0.21146011 C75.07181846 -0.22590302 77.83728021 -0.22798098 80.60302734 -0.22705078 C81.42805252 -0.23424133 82.2530777 -0.24143188 83.10310364 -0.24884033 C88.77189568 -0.22810432 88.77189568 -0.22810432 91 2 C91.39863496 6.25742138 91.32902541 10.52947574 91.31567383 14.8034668 C91.31251689 16.92614206 91.33595761 19.04741936 91.36132812 21.16992188 C91.36360146 22.51822741 91.36430446 23.86653669 91.36328125 25.21484375 C91.36626221 26.44323975 91.36924316 27.67163574 91.37231445 28.93725586 C91 32 91 32 90.00289917 33.6701355 C86.7842915 35.80719369 83.3155873 35.39017404 79.58129883 35.34057617 C78.72254654 35.34101425 77.86379425 35.34145233 76.97901917 35.34190369 C74.13812593 35.33981223 71.2978215 35.31646443 68.45703125 35.29296875 C66.48834048 35.28737406 64.51964553 35.28310337 62.5509491 35.28010559 C57.36736536 35.2686468 52.18403349 35.23917066 47.00054932 35.20599365 C41.71198941 35.17531508 36.42338885 35.16160499 31.13476562 35.14648438 C20.75638191 35.11430196 10.37825129 35.06152552 0 35 C0 23.45 0 11.9 0 0 Z " fill="#12BB6A" transform="translate(281,348)"/>
<path d="M0 0 C11.42195562 -0.06771293 22.84377845 -0.12277976 34.26588917 -0.15543652 C39.56934362 -0.17110823 44.87265391 -0.19237401 50.17602539 -0.22631836 C55.29181528 -0.25885805 60.4074663 -0.27684167 65.52335167 -0.28463173 C67.47744623 -0.29018494 69.431533 -0.30102868 71.38556862 -0.31719017 C74.11764721 -0.33889283 76.84914824 -0.34196994 79.58129883 -0.34057617 C80.39337799 -0.351362 81.20545715 -0.36214783 82.04214478 -0.3732605 C87.48348203 -0.34312223 87.48348203 -0.34312223 90.00190735 1.3298645 C91.63857585 4.06854628 91.38975672 6.63382575 91.3984375 9.78515625 C91.40130768 10.44204941 91.40417786 11.09894257 91.40713501 11.77574158 C91.40917341 13.16178247 91.40365905 14.54785228 91.39111328 15.93383789 C91.37502834 18.05875641 91.39098014 20.18178054 91.41015625 22.30664062 C91.40817428 23.65365004 91.40433155 25.00065827 91.3984375 26.34765625 C91.39505371 27.57492432 91.39166992 28.80219238 91.38818359 30.06665039 C91.19603271 31.51865845 91.19603271 31.51865845 91 33 C87.15661479 35.56225681 84.03380894 35.26647551 79.58129883 35.22705078 C78.72254654 35.22734283 77.86379425 35.22763489 76.97901917 35.22793579 C74.13825403 35.22654155 71.29775061 35.2109759 68.45703125 35.1953125 C66.48833866 35.19158271 64.51964421 35.18873558 62.5509491 35.18673706 C57.36743044 35.17909796 52.18402372 35.15944707 47.00054932 35.1373291 C41.71197016 35.11687665 36.42337293 35.10773663 31.13476562 35.09765625 C20.7564533 35.07620145 10.37825347 35.04101702 0 35 C0 23.45 0 11.9 0 0 Z " fill="#F95C3C" transform="translate(281,191)"/>
<path d="M0 0 C14.52 0 29.04 0 44 0 C44 14.52 44 29.04 44 44 C29.48 44 14.96 44 0 44 C0 29.48 0 14.96 0 0 Z " fill="#F2593A" transform="translate(453,37)"/>
<path d="M0 0 C1.18618423 -0.00708481 2.37236847 -0.01416962 3.59449768 -0.02146912 C4.89745285 -0.0189917 6.20040802 -0.01651428 7.54284668 -0.01396179 C8.92756933 -0.0183085 10.31228957 -0.02349151 11.69700623 -0.02944946 C15.45933376 -0.04285406 19.22156093 -0.04341661 22.9839077 -0.04088616 C26.12275329 -0.03981761 29.26157848 -0.04469677 32.40041971 -0.04949158 C39.80354236 -0.06059146 47.20661427 -0.06102125 54.60974121 -0.05497742 C62.25275684 -0.04893383 69.89558855 -0.06125722 77.53857279 -0.08254749 C84.09659962 -0.10014528 90.65456781 -0.1061678 97.2126174 -0.10290974 C101.13126214 -0.10109408 105.04977564 -0.10376118 108.96839905 -0.11762428 C112.65218743 -0.13016879 116.33568832 -0.12829092 120.01947212 -0.11521339 C122.01916879 -0.11170749 124.0188741 -0.12304992 126.01853943 -0.13478088 C127.20472366 -0.12776657 128.3909079 -0.12075226 129.61303711 -0.11352539 C131.16271809 -0.113777 131.16271809 -0.113777 132.74370575 -0.1140337 C135.30651855 0.26069641 135.30651855 0.26069641 137.1740799 1.58877277 C138.30651855 3.26069641 138.30651855 3.26069641 138.11901855 6.38569641 C137.85089355 7.33444641 137.58276855 8.28319641 137.30651855 9.26069641 C134.65493804 10.58648667 132.659119 10.38963498 129.68859863 10.39440918 C128.49392975 10.39867416 127.29926086 10.40293915 126.06838989 10.40733337 C124.75091766 10.40688019 123.43344543 10.406427 122.0760498 10.40596008 C120.68000193 10.40895093 119.28395488 10.41235329 117.88790894 10.4161377 C114.09048912 10.42498841 110.29309182 10.42731623 106.49566269 10.42795348 C103.32944022 10.4289016 100.16322304 10.43257868 96.9970026 10.43612558 C89.5301849 10.44427384 82.06337926 10.44670943 74.59655762 10.44599915 C66.88371697 10.44539791 59.17094617 10.45595799 51.45812321 10.47174281 C44.84409028 10.48479853 38.23008023 10.49018389 31.61603451 10.48954374 C27.66222112 10.48928821 23.70846979 10.49216931 19.75466919 10.50272179 C16.03812428 10.51237002 12.32170121 10.51250465 8.60515213 10.50520515 C6.58497787 10.5036532 4.5648037 10.51202843 2.54464722 10.52064514 C1.34997833 10.51645065 0.15530945 10.51225616 -1.07556152 10.50793457 C-2.63963493 10.50875172 -2.63963493 10.50875172 -4.23530579 10.50958538 C-6.69348145 10.26069641 -6.69348145 10.26069641 -8.69348145 8.26069641 C-9.00598145 5.26069641 -9.00598145 5.26069641 -8.69348145 2.26069641 C-5.26568373 -0.02450207 -4.0307282 0.00800929 0 0 Z " fill="#030303" transform="translate(76.6934814453125,427.7393035888672)"/>
<path d="M0 0 C1.80462456 -0.00845947 1.80462456 -0.00845947 3.64570618 -0.01708984 C4.98593199 -0.0132009 6.32615722 -0.00910454 7.66638184 -0.00482178 C9.07228273 -0.00753065 10.47818221 -0.011091 11.88407898 -0.01544189 C15.70838825 -0.02458051 19.53258995 -0.02101562 23.35690117 -0.01468372 C27.35317151 -0.00963132 31.34943244 -0.01431305 35.34570312 -0.01745605 C42.05759338 -0.02109792 48.76943966 -0.01629083 55.48132324 -0.0067749 C63.24870213 0.00411008 71.01597603 0.00058466 78.78335238 -0.01042771 C85.44409985 -0.01949432 92.10481566 -0.02078895 98.7655673 -0.01555037 C102.74731893 -0.01242721 106.72902117 -0.01203078 110.71076965 -0.01862335 C114.45359033 -0.0243871 118.19627523 -0.02041787 121.93908119 -0.00883484 C123.31536445 -0.00618303 124.69165907 -0.00696219 126.06793785 -0.01136017 C127.94136531 -0.0167963 129.81481765 -0.00878194 131.68823242 0 C132.73832237 0.00075405 133.78841232 0.0015081 134.87032318 0.002285 C137.34411621 0.25396729 137.34411621 0.25396729 139.34411621 2.25396729 C139.69801147 5.01435029 139.81962416 6.58532116 138.18042755 8.8903141 C135.61435146 10.79589392 133.83099108 10.63143631 130.65063477 10.63491821 C129.46445053 10.64337769 128.2782663 10.65183716 127.05613708 10.66055298 C125.75318192 10.65448029 124.45022675 10.64840759 123.10778809 10.64215088 C121.72306402 10.64621554 120.3383432 10.65155683 118.95362854 10.65808105 C115.19124737 10.6717732 111.42911262 10.6664483 107.66672707 10.6569438 C103.73231967 10.64935697 99.7979336 10.65639008 95.86352539 10.66110229 C89.25594285 10.66656271 82.64846084 10.65936078 76.04089355 10.64508057 C68.39786773 10.62875345 60.75508198 10.63404176 53.11206198 10.65055978 C46.55402618 10.66416655 39.99606272 10.6660983 33.43801737 10.65824378 C29.51938345 10.65356278 25.60086242 10.65295404 21.68223572 10.66285324 C17.99843018 10.67150893 14.31493464 10.66552695 10.63116264 10.64817047 C8.6314779 10.64230068 6.63176698 10.65123309 4.63209534 10.66055298 C3.4459111 10.65209351 2.25972687 10.64363403 1.03759766 10.63491821 C-0.51208332 10.6332216 -0.51208332 10.6332216 -2.09307098 10.63149071 C-4.65588379 10.25396729 -4.65588379 10.25396729 -6.49219513 8.8903141 C-8.13139173 6.58532116 -8.00977905 5.01435029 -7.65588379 2.25396729 C-4.98950655 -0.41240995 -3.72590385 0.00267551 0 0 Z " fill="#080808" transform="translate(75.6558837890625,347.74603271484375)"/>
<path d="M0 0 C1.76448738 -0.01268921 1.76448738 -0.01268921 3.56462097 -0.02563477 C4.85665436 -0.01956207 6.14868774 -0.01348938 7.47987366 -0.00723267 C8.85312315 -0.0112974 10.22636937 -0.01663872 11.59960938 -0.02316284 C15.33106761 -0.03685543 19.06227738 -0.03152957 22.79374003 -0.02202559 C26.69698307 -0.01443746 30.60020463 -0.02147238 34.50344849 -0.02618408 C41.05975671 -0.03164476 47.61596362 -0.02444254 54.17225647 -0.01016235 C61.75277901 0.00615801 69.33305942 0.00088147 76.91357607 -0.01564157 C83.41982341 -0.02925569 89.92599786 -0.03117627 96.43225485 -0.02332556 C100.3190629 -0.01864774 104.20575716 -0.01802699 108.09255791 -0.02793503 C111.74764015 -0.03660116 115.40241035 -0.03058955 119.05745888 -0.01325226 C121.03905941 -0.00739263 123.02068632 -0.01630648 125.00227356 -0.02563477 C126.77099068 -0.01294556 126.77099068 -0.01294556 128.57543945 0 C129.60026397 0.00113108 130.62508848 0.00226215 131.68096828 0.00342751 C134.76048437 0.4388146 136.14757429 1.21191665 138.35121155 3.38095093 C138.72621155 5.94345093 138.72621155 5.94345093 138.35121155 8.38095093 C135.68483431 11.04732816 134.4212316 10.63224271 130.69532776 10.63491821 C128.8907032 10.64337769 128.8907032 10.64337769 127.04962158 10.65200806 C125.70939577 10.64811912 124.36917054 10.64402276 123.02894592 10.63973999 C121.62304503 10.64244887 120.21714555 10.64600922 118.81124878 10.65036011 C114.9869395 10.65949872 111.16273781 10.65593384 107.33842659 10.64960194 C103.34215625 10.64454953 99.34589532 10.64923127 95.34962463 10.65237427 C88.63773438 10.65601614 81.9258881 10.65120904 75.21400452 10.64169312 C67.44662563 10.63080813 59.67935173 10.63433355 51.91197538 10.64534593 C45.25122791 10.65441253 38.5905121 10.65570716 31.92976046 10.65046859 C27.94800883 10.64734542 23.96630659 10.646949 19.98455811 10.65354156 C16.24173743 10.65930532 12.49905253 10.65533608 8.75624657 10.64375305 C7.37996331 10.64110124 6.00366869 10.6418804 4.62738991 10.64627838 C2.75396244 10.65171452 0.8805101 10.64370015 -0.99290466 10.63491821 C-2.04299461 10.63416416 -3.09308456 10.63341011 -4.17499542 10.63263321 C-6.64878845 10.38095093 -6.64878845 10.38095093 -8.64878845 8.38095093 C-9.00289113 5.61895005 -9.12516902 4.04922 -7.48230648 1.74460411 C-4.92832469 -0.15488384 -3.16724827 0.00349691 0 0 Z " fill="#0B0B0B" transform="translate(76.64878845214844,373.6190490722656)"/>
<path d="M0 0 C14.19 0 28.38 0 43 0 C43 23.45614035 43 23.45614035 37.21875 30.0234375 C36.6515625 30.46945313 36.084375 30.91546875 35.5 31.375 C34.9328125 31.83648437 34.365625 32.29796875 33.78125 32.7734375 C28.30328688 36.54554368 23.53330491 36.59393681 17 36 C11.70288459 34.35007881 7.92124846 31.92124846 4 28 C0 20 0 20 0 0 Z " fill="#FBB39C" transform="translate(120,221)"/>
<path d="M0 0 C5.46373716 0.79091025 8.5025532 6.20921832 11.64453125 10.3828125 C16.86568697 18.13523165 21.02452752 26.39206285 23.64453125 35.3828125 C23.86882812 36.12015625 24.093125 36.8575 24.32421875 37.6171875 C29.49639842 58.16420261 24.12341458 78.58925768 13.64453125 96.3828125 C11.77729349 99.29832409 9.93137665 101.7692749 7.64453125 104.3828125 C6.98453125 104.3828125 6.32453125 104.3828125 5.64453125 104.3828125 C1.46310576 97.41952956 1.46310576 97.41952956 2.08203125 93.8828125 C2.967102 92.46669931 3.85763661 91.05387287 4.765625 89.65234375 C14.46252226 74.517934 17.06917784 57.30325024 13.58203125 39.6953125 C10.42759803 27.9030388 4.29593416 17.03421541 -4.35546875 8.3828125 C-4.54296875 5.4453125 -4.54296875 5.4453125 -4.35546875 2.3828125 C-2.35546875 0.3828125 -2.35546875 0.3828125 0 0 Z " fill="#F7E3AC" transform="translate(190.35546875,177.6171875)"/>
<path d="M0 0 C0.13705898 1.9980154 0.23290965 3.9988713 0.3125 6 C0.37050781 7.11375 0.42851562 8.2275 0.48828125 9.375 C-0.15372781 14.14127525 -1.51901548 17.59895179 -5 21 C-8.52609921 22.10798277 -11.88420926 21.93567242 -15.55078125 21.78125 C-16.56472458 21.76993042 -17.57866791 21.75861084 -18.62333679 21.74694824 C-21.85499784 21.70223984 -25.08218558 21.60188599 -28.3125 21.5 C-30.5057952 21.45986592 -32.6991601 21.42336503 -34.89257812 21.390625 C-40.26323936 21.30252488 -45.6313002 21.16874792 -51 21 C-51.05386629 18.87527424 -51.09273071 16.75016348 -51.125 14.625 C-51.14820312 13.44164062 -51.17140625 12.25828125 -51.1953125 11.0390625 C-51 8 -51 8 -49 6 C-46.56177335 5.81506878 -44.22751656 5.74722956 -41.7890625 5.76171875 C-40.30077241 5.74627206 -38.81249104 5.72996654 -37.32421875 5.71289062 C-34.98987503 5.69658866 -32.65617204 5.68740418 -30.32177734 5.69458008 C-21.10532796 5.70544155 -13.73895742 5.27066868 -5.29833984 1.06958008 C-3 0 -3 0 0 0 Z " fill="#787776" transform="translate(171,190)"/>
<path d="M0 0 C1.31476318 -0.00630432 2.62952637 -0.01260864 3.98413086 -0.019104 C5.42561985 -0.01552433 6.86710762 -0.0114224 8.30859375 -0.00683594 C9.78068099 -0.00818261 11.2527678 -0.01012317 12.72485352 -0.01263428 C15.81172923 -0.01558543 18.89848928 -0.01128825 21.98535156 -0.00195312 C25.94681504 0.0094415 29.90800753 0.00288197 33.86946106 -0.00909805 C36.90972952 -0.01631694 39.94993348 -0.01402861 42.99020386 -0.00884247 C44.45108065 -0.00750605 45.91196325 -0.00915344 47.37283325 -0.01380157 C49.4126169 -0.018867 51.45242101 -0.00978073 53.4921875 0 C55.23520142 0.00238678 55.23520142 0.00238678 57.01342773 0.00482178 C59.74609375 0.25878906 59.74609375 0.25878906 61.74609375 2.25878906 C62.0977797 5.00193944 62.2124465 6.58605389 60.61206055 8.89468384 C57.92089653 10.86204516 55.89067073 10.63992127 52.578125 10.64697266 C51.30670654 10.65642914 50.03528809 10.66588562 48.7253418 10.67562866 C47.33642262 10.67025897 45.94750627 10.66410602 44.55859375 10.65722656 C43.13517101 10.65924745 41.71174928 10.66215901 40.28833008 10.66592407 C37.30572651 10.67034678 34.32339254 10.66391842 31.34082031 10.64990234 C27.51724284 10.63281009 23.69429709 10.64265162 19.8707428 10.66061974 C16.93163288 10.67145925 13.99267278 10.66801055 11.05355835 10.66023636 C9.64374721 10.65823479 8.23392247 10.66069212 6.8241272 10.66767502 C4.85410827 10.6752913 2.88404166 10.66162485 0.9140625 10.64697266 C-0.20718018 10.64458588 -1.32842285 10.6421991 -2.48364258 10.63973999 C-5.25390625 10.25878906 -5.25390625 10.25878906 -7.11987305 8.89468384 C-8.720259 6.58605389 -8.6055922 5.00193944 -8.25390625 2.25878906 C-5.48835695 -0.50676024 -3.87270838 0.00530306 0 0 Z " fill="#070707" transform="translate(407.25390625,429.7412109375)"/>
<path d="M0 0 C0.99 0.33 1.98 0.66 3 1 C3.73046875 3.06640625 3.73046875 3.06640625 4.1875 5.5625 C4.34605469 6.38878906 4.50460938 7.21507812 4.66796875 8.06640625 C4.77753906 8.70449219 4.88710937 9.34257812 5 10 C-9.13390573 21.00751184 -24.77475016 26.17391831 -42.5625 26.375 C-43.43213379 26.38901855 -44.30176758 26.40303711 -45.19775391 26.41748047 C-48.83261066 26.3897226 -51.32050728 26.36094819 -54.56640625 24.63671875 C-56 23 -56 23 -56.375 20.4375 C-56 18 -56 18 -54 16 C-51.97558594 15.74462891 -51.97558594 15.74462891 -49.484375 15.7265625 C-48.56962402 15.70891846 -47.65487305 15.69127441 -46.71240234 15.6730957 C-45.73480957 15.65722412 -44.7572168 15.64135254 -43.75 15.625 C-29.02765709 15.15265717 -13.85732865 12.16357693 -2.4375 2.0625 C-1.633125 1.381875 -0.82875 0.70125 0 0 Z " fill="#C2E3FD" transform="translate(183,281)"/>
<path d="M0 0 C3.00296082 1.0986442 4.48085688 2.54746531 6.5625 4.9375 C8.83081293 3.88435471 10.60294105 2.90227715 12.5 1.25 C14.5625 -0.0625 14.5625 -0.0625 17.25 0.1875 C19.5625 0.9375 19.5625 0.9375 20.5625 1.9375 C20.875 4.75 20.875 4.75 20.5625 7.9375 C19.24921343 9.29058313 17.91750919 10.62620078 16.5625 11.9375 C16.48607291 14.04899645 16.48607291 14.04899645 17.5625 15.9375 C18.078125 16.39125 18.59375 16.845 19.125 17.3125 C20.5625 18.9375 20.5625 18.9375 20.875 22 C20.5625 24.9375 20.5625 24.9375 18.5625 26.9375 C16.25 27.375 16.25 27.375 13.5625 26.9375 C10.75 24.4375 10.75 24.4375 8.5625 21.9375 C6.2939987 22.95441438 4.77500001 23.67670454 3.1875 25.625 C1.5625 26.9375 1.5625 26.9375 -1.625 26.625 C-2.553125 26.398125 -3.48125 26.17125 -4.4375 25.9375 C-6.00409619 19.91213002 -6.00409619 19.91213002 -4.390625 17.13671875 C-3.14588944 15.67170696 -1.79684288 14.29684288 -0.4375 12.9375 C-1.675 11.8546875 -1.675 11.8546875 -2.9375 10.75 C-5.4375 7.9375 -5.4375 7.9375 -5.9375 5.3125 C-5.4375 2.9375 -5.4375 2.9375 -4.25 1.0625 C-2.4375 -0.0625 -2.4375 -0.0625 0 0 Z " fill="#060201" transform="translate(467.4375,45.0625)"/>
<path d="M0 0 C1.33664955 -0.01429802 1.33664955 -0.01429802 2.70030212 -0.02888489 C3.66488846 -0.02797348 4.62947479 -0.02706207 5.62329102 -0.02612305 C6.61216812 -0.03040817 7.60104523 -0.0346933 8.61988831 -0.03910828 C10.71386956 -0.04485816 12.8078708 -0.04534701 14.90185547 -0.04101562 C18.11077887 -0.03785795 21.31877874 -0.06129897 24.52758789 -0.08666992 C26.55948777 -0.08894302 28.59139013 -0.08964636 30.62329102 -0.08862305 C32.06713417 -0.10243767 32.06713417 -0.10243767 33.54014587 -0.11653137 C34.43439774 -0.11030258 35.3286496 -0.10407379 36.25 -0.09765625 C37.03672592 -0.09828568 37.82345184 -0.0989151 38.63401794 -0.0995636 C41.23674449 0.37424426 42.14911086 1.14720023 43.68969727 3.2746582 C43.50219727 6.3996582 43.50219727 6.3996582 42.68969727 9.2746582 C40.35331715 10.44284826 38.96630847 10.40734652 36.36352539 10.41992188 C35.469198 10.42630173 34.57487061 10.43268158 33.65344238 10.43925476 C32.68571899 10.44036758 31.71799561 10.44148041 30.72094727 10.44262695 C29.72969849 10.44595535 28.73844971 10.44928375 27.71716309 10.45271301 C25.61898259 10.45778113 23.52079403 10.46012137 21.42260742 10.45996094 C18.20290958 10.46214922 14.98355326 10.48031116 11.76391602 10.49926758 C9.72876094 10.50220109 7.69360424 10.50418617 5.65844727 10.50512695 C4.20686218 10.51590523 4.20686218 10.51590523 2.72595215 10.52690125 C1.83162476 10.52382462 0.93729736 10.52074799 0.01586914 10.51757812 C-0.77307739 10.51900314 -1.56202393 10.52042816 -2.37487793 10.52189636 C-4.31030273 10.2746582 -4.31030273 10.2746582 -6.31030273 8.2746582 C-6.56030273 5.2746582 -6.56030273 5.2746582 -6.31030273 2.2746582 C-3.89206472 -0.14357981 -3.30709305 0.01938731 0 0 Z " fill="#020202" transform="translate(52.310302734375,59.725341796875)"/>
<path d="M0 0 C3.1875 0.375 3.1875 0.375 5.5625 2.875 C6.09875 3.7 6.635 4.525 7.1875 5.375 C9.58894267 5.1792208 9.58894267 5.1792208 12.1875 4.375 C12.661875 3.694375 13.13625 3.01375 13.625 2.3125 C15.1875 0.375 15.1875 0.375 18.25 0 C21.1875 0.375 21.1875 0.375 23.1875 2.375 C23.10592904 6.69826095 22.64557853 8.81787746 19.875 12.1875 C15.46893053 15.77383562 12.15723261 16.93999471 6.5078125 16.828125 C2.43244043 16.03226109 -0.21710659 13.50960257 -2.8125 10.375 C-4.39617786 7.71339947 -4.86448832 6.82209957 -4.5 3.6875 C-3.52350766 0.40293484 -3.48903636 0.46520485 0 0 Z " fill="#080505" transform="translate(131.8125,230.625)"/>
<path d="M0 0 C4.61085959 0.59770402 7.87602835 2.39455546 11.375 5.4375 C12.5625 8.0625 12.5625 8.0625 12.375 10.4375 C11.375 12.3125 11.375 12.3125 9.375 13.4375 C4.2050839 13.4375 0.69697791 11.93530242 -3.3046875 8.83984375 C-4.625 7.4375 -4.625 7.4375 -5.1875 4.75 C-4.37080371 1.39247083 -3.39676849 0.56612808 0 0 Z " fill="#C2E3FD" transform="translate(105.625,287.5625)"/>
<path d="M0 0 C2.5625 0.3125 2.5625 0.3125 4.4375 1.4375 C6.11540631 4.23401052 5.31125648 6.24940532 4.5625 9.3125 C1.75 10.4375 1.75 10.4375 -1.4375 11.3125 C-2.4275 10.6525 -3.4175 9.9925 -4.4375 9.3125 C-4.75 5.8125 -4.75 5.8125 -4.4375 2.3125 C-2.4375 0.3125 -2.4375 0.3125 0 0 Z " fill="#060606" transform="translate(9.4375,226.6875)"/>
<path d="M0 0 C3 0.25 3 0.25 5 2.25 C5.36796448 5.12012296 5.37509409 6.65774618 3.8125 9.125 C2 10.25 2 10.25 -0.5625 10.0625 C-3 9.25 -3 9.25 -5 7.25 C-5.25 4.75 -5.25 4.75 -5 2.25 C-3 0.25 -3 0.25 0 0 Z " fill="#101010" transform="translate(384,429.75)"/>
<path d="M0 0 C3.29714793 0.32971479 4.6226839 0.6226839 7 3 C6.625 6.125 6.625 6.125 6 9 C0.56559513 10.32841008 0.56559513 10.32841008 -1.9375 8.875 C-3 7 -3 7 -2.8125 4.4375 C-2 2 -2 2 0 0 Z " fill="#0A0906" transform="translate(223,186)"/>
</svg>
