<?xml version="1.0" encoding="UTF-8"?>
<svg version="1.1" xmlns="http://www.w3.org/2000/svg" width="512" height="512">
<path d="M0 0 C0.68432157 -0.00380567 1.36864315 -0.00761134 2.07370174 -0.01153234 C4.37765216 -0.02187763 6.68135755 -0.01793659 8.98532486 -0.01409245 C10.64949734 -0.01854326 12.3136677 -0.02385679 13.97783494 -0.02996117 C18.55960472 -0.04417043 23.14130676 -0.04580391 27.72309542 -0.04536426 C32.66120723 -0.0470099 37.59929093 -0.06007167 42.53738785 -0.07155704 C53.33899613 -0.09442591 64.1405848 -0.10232968 74.94221401 -0.10738349 C81.684902 -0.11063831 88.42758426 -0.11715948 95.17026901 -0.12438488 C113.83349169 -0.14395324 132.49670903 -0.16035608 151.15994263 -0.16326141 C152.95208558 -0.16354277 152.95208558 -0.16354277 154.78043343 -0.16382981 C157.2025822 -0.16419606 159.62473097 -0.16455976 162.04687974 -0.16492092 C163.24926255 -0.16510373 164.45164536 -0.16528654 165.69046402 -0.16547489 C167.49623584 -0.16574572 167.49623584 -0.16574572 169.33848789 -0.16602201 C188.84885545 -0.16956429 208.35911267 -0.19658899 227.86944196 -0.23397278 C247.89343288 -0.27203422 267.91736904 -0.29141873 287.94139695 -0.29172093 C299.18698818 -0.29230598 310.43244781 -0.30082908 321.67800522 -0.32971859 C331.2531807 -0.35420352 340.82817658 -0.36153488 350.40337488 -0.34647106 C355.28946813 -0.33929036 360.17520652 -0.34020959 365.06126022 -0.36288166 C369.53482001 -0.38344095 374.00775145 -0.38089995 378.4813042 -0.36000682 C380.09908676 -0.35650606 381.71691439 -0.36144674 383.33463785 -0.37571125 C399.25846703 -0.50706519 399.25846703 -0.50706519 405.22073746 5.26006222 C408.64541725 9.78947743 409.36144017 13.81709734 409.26722336 19.39582157 C409.25234674 20.44003588 409.23747012 21.48425019 409.2221427 22.56010735 C409.20061085 23.70649804 409.17907901 24.85288872 409.15689468 26.03401852 C409.13854899 27.25364816 409.12020329 28.4732778 409.10130167 29.72986591 C409.06073143 32.41144679 409.01836435 35.09293477 408.97319603 37.774436 C408.84810439 45.24250586 408.7450682 52.71090829 408.64004898 60.17928219 C408.62872421 60.97351834 408.61739944 61.76775449 408.60573149 62.58605841 C408.42687277 75.18935772 408.29710131 87.79254402 408.20279312 100.39675045 C408.19634858 101.2542839 408.18990403 102.11181735 408.1832642 102.99533667 C408.11718906 111.87967111 408.05710941 120.76403752 408.00148126 129.64844317 C407.97259251 134.21837395 407.94212136 138.78829286 407.91067886 143.35820675 C407.90444773 144.2675071 407.8982166 145.17680744 407.89179665 146.11366235 C407.80156934 158.84690044 407.63474084 171.57712822 407.40692306 184.30861673 C407.01450287 206.25343677 406.77616295 228.1942824 406.81448746 250.14287472 C406.81615858 251.42206081 406.81615858 251.42206081 406.81786346 252.72708905 C406.91039418 304.80657333 411.61730557 348.47035576 437.16645336 395.00968385 C444.51234605 408.5184389 446.48349476 423.02845019 443.22073746 438.26006222 C440.82896019 442.95595085 440.82896019 442.95595085 438.22073746 444.26006222 C435.60369447 444.35948567 433.01316866 444.39747902 430.39577293 444.39148998 C429.57411402 444.39354262 428.75245511 444.39559525 427.90589744 444.39771008 C425.12281875 444.40341316 422.33978902 444.40191879 419.55670547 444.40050411 C417.55317657 444.40308585 415.54964819 444.40609847 413.54612052 444.40950751 C408.01719424 444.41760316 402.48828091 444.4193685 396.95934939 444.42010498 C391.00560197 444.42195107 385.05186134 444.4294961 379.09811783 444.4362402 C365.38972779 444.45055147 351.68133871 444.45635222 337.97294291 444.46093214 C331.20232837 444.4632664 324.43171467 444.46686884 317.66110079 444.47062752 C294.49544461 444.48346379 271.32978891 444.49418336 248.16412926 444.49763012 C246.70939938 444.49785175 245.2546695 444.49807354 243.79993962 444.49829547 C242.34165004 444.49851611 240.88336046 444.4987366 239.42507088 444.49895692 C236.4993751 444.49939948 233.57367933 444.49984659 230.64798355 444.50029659 C229.55987644 444.50046068 229.55987644 444.50046068 228.44978737 444.50062808 C204.91921901 444.50426013 181.38868143 444.52018537 157.85812486 444.54348696 C132.99400387 444.56806423 108.12990048 444.58180196 83.26576698 444.58299804 C80.53811955 444.5831695 77.81047213 444.58338493 75.08282471 444.58363247 C74.07535205 444.58371612 74.07535205 444.58371612 73.0475264 444.58380147 C62.22329493 444.58495369 51.39909497 444.59599019 40.57487415 444.61051952 C29.70230354 444.6248618 18.8297754 444.62788116 7.95719804 444.62007955 C2.06312329 444.61615904 -3.8308451 444.61717058 -9.72490692 444.63113689 C-15.1147641 444.64379217 -20.50443409 444.6427526 -25.8942907 444.63054618 C-27.84987638 444.62857457 -29.80547495 444.63173437 -31.76104246 444.64039055 C-34.40846472 444.65137231 -37.05521327 444.64407473 -39.70261574 444.63199902 C-40.47124787 444.63959421 -41.23988001 444.6471894 -42.03180403 444.65501475 C-45.18642182 444.623706 -47.4283641 444.45197682 -50.22155297 442.92431617 C-55.35107125 437.44394858 -54.00586739 426.06115222 -53.91423333 418.94867998 C-53.54449651 408.99776241 -50.39032256 401.66192787 -45.64400864 393.04204464 C-20.40054037 346.21754513 -16.46810158 302.38506088 -16.44332504 250.24834347 C-16.44249857 249.39789383 -16.44167209 248.54744419 -16.44082057 247.67122334 C-16.42548805 225.7069581 -16.71998093 203.75044809 -17.12662768 181.79042327 C-17.360034 169.05544513 -17.51676777 156.3212084 -17.62008286 143.58452511 C-17.63115149 142.2248629 -17.63115149 142.2248629 -17.64244373 140.83773277 C-17.69345505 134.48438885 -17.74056906 128.13101856 -17.78707504 121.77764034 C-17.83909935 114.74403252 -17.89261466 107.71043778 -17.94805527 100.67685604 C-17.95468356 99.82430918 -17.96131185 98.97176232 -17.968141 98.09338071 C-18.06069866 86.36854989 -18.20311315 74.64533322 -18.38795522 62.92160638 C-18.45998984 58.27098022 -18.52465129 53.62024383 -18.58966137 48.96951482 C-18.65101449 44.66428926 -18.72588022 40.3595817 -18.81139908 36.05477204 C-18.87154436 32.83494816 -18.91209612 29.61486308 -18.9559288 26.39478207 C-18.99696509 24.68830383 -18.99696509 24.68830383 -19.0388304 22.94735128 C-19.11771073 15.34360948 -18.46543686 10.35949412 -13.34176254 4.44756222 C-8.84161109 0.60596951 -5.93785912 0.00948444 0 0 Z " fill="#114559" transform="translate(60.77926254272461,33.7399377822876)"/>
<path d="M0 0 C141.24 0 282.48 0 428 0 C431.96 9.57 435.92 19.14 440 29 C442.96226562 35.83525391 442.96226562 35.83525391 445.984375 42.80859375 C467.72181711 93.68501747 467.72181711 93.68501747 462 114 C459.52232812 118.73883594 459.52232812 118.73883594 457 120 C454.38295702 120.09942346 451.7924312 120.1374168 449.17503548 120.13142776 C448.35337656 120.1334804 447.53171765 120.13553303 446.68515998 120.13764787 C443.90208129 120.14335094 441.11905157 120.14185657 438.33596802 120.14044189 C436.33243912 120.14302363 434.32891073 120.14603625 432.32538307 120.1494453 C426.79645678 120.15754094 421.26754345 120.15930629 415.73861194 120.16004276 C409.78486451 120.16188886 403.83112389 120.16943389 397.87738037 120.17617798 C384.16899034 120.19048925 370.46060126 120.19629 356.75220546 120.20086992 C349.98159091 120.20320418 343.21097721 120.20680663 336.44036333 120.2105653 C313.27470715 120.22340157 290.10905146 120.23412114 266.9433918 120.2375679 C265.48866192 120.23778954 264.03393205 120.23801132 262.57920217 120.23823325 C261.12091259 120.2384539 259.66262301 120.23867438 258.20433342 120.2388947 C255.27863765 120.23933726 252.35294187 120.23978437 249.42724609 120.24023438 C248.33913898 120.24039846 248.33913898 120.24039846 247.22904991 120.24056586 C223.69848155 120.24419791 200.16794397 120.26012315 176.6373874 120.28342474 C151.77326641 120.30800201 126.90916302 120.32173974 102.04502952 120.32293582 C99.31738209 120.32310728 96.58973467 120.32332271 93.86208725 120.32357025 C92.85461459 120.3236539 92.85461459 120.3236539 91.82678894 120.32373925 C81.00255747 120.32489148 70.17835751 120.33592797 59.35413669 120.35045731 C48.48156608 120.36479958 37.60903794 120.36781894 26.73646058 120.36001733 C20.84238583 120.35609683 14.94841745 120.35710836 9.05435562 120.37107468 C3.66449844 120.38372995 -1.72517154 120.38269039 -7.11502816 120.37048396 C-9.07061384 120.36851235 -11.0262124 120.37167216 -12.98177992 120.38032833 C-15.62920218 120.39131009 -18.27595073 120.38401252 -20.9233532 120.3719368 C-21.69198533 120.37953199 -22.46061746 120.38712718 -23.25254148 120.39495254 C-26.40715928 120.36364379 -28.64910156 120.19191461 -31.44229043 118.66425395 C-36.42005954 113.34601488 -35.22855563 102.18299557 -35.1412611 95.41457748 C-34.47393664 77.26984717 -25.84457303 60.45169196 -18.76074219 44.04455566 C-16.74038455 39.33265189 -14.78261611 34.59486997 -12.81835938 29.859375 C-9.95837281 22.98525977 -7.07394251 16.1224288 -4.14282227 9.27832031 C-3.83784317 8.56588165 -3.53286407 7.85344299 -3.21864319 7.11941528 C-1.13319381 2.26638762 -1.13319381 2.26638762 0 0 Z " fill="#C9DAE9" transform="translate(42,358)"/>
<path d="M0 0 C0.68432157 -0.00380567 1.36864315 -0.00761134 2.07370174 -0.01153234 C4.37765216 -0.02187763 6.68135755 -0.01793659 8.98532486 -0.01409245 C10.64949734 -0.01854326 12.3136677 -0.02385679 13.97783494 -0.02996117 C18.55960472 -0.04417043 23.14130676 -0.04580391 27.72309542 -0.04536426 C32.66120723 -0.0470099 37.59929093 -0.06007167 42.53738785 -0.07155704 C53.33899613 -0.09442591 64.1405848 -0.10232968 74.94221401 -0.10738349 C81.684902 -0.11063831 88.42758426 -0.11715948 95.17026901 -0.12438488 C113.83349169 -0.14395324 132.49670903 -0.16035608 151.15994263 -0.16326141 C152.95208558 -0.16354277 152.95208558 -0.16354277 154.78043343 -0.16382981 C157.2025822 -0.16419606 159.62473097 -0.16455976 162.04687974 -0.16492092 C163.24926255 -0.16510373 164.45164536 -0.16528654 165.69046402 -0.16547489 C167.49623584 -0.16574572 167.49623584 -0.16574572 169.33848789 -0.16602201 C188.84885545 -0.16956429 208.35911267 -0.19658899 227.86944196 -0.23397278 C247.89343288 -0.27203422 267.91736904 -0.29141873 287.94139695 -0.29172093 C299.18698818 -0.29230598 310.43244781 -0.30082908 321.67800522 -0.32971859 C331.2531807 -0.35420352 340.82817658 -0.36153488 350.40337488 -0.34647106 C355.28946813 -0.33929036 360.17520652 -0.34020959 365.06126022 -0.36288166 C369.53482001 -0.38344095 374.00775145 -0.38089995 378.4813042 -0.36000682 C380.09908676 -0.35650606 381.71691439 -0.36144674 383.33463785 -0.37571125 C399.25846703 -0.50706519 399.25846703 -0.50706519 405.22073746 5.26006222 C408.686924 9.84437345 409.34606394 13.95169134 409.34378529 19.59363842 C409.34577616 20.681796 409.34776703 21.76995358 409.34981823 22.89108562 C409.34690557 24.08528748 409.3439929 25.27948933 409.34099197 26.50987911 C409.34184799 27.77613125 409.34270401 29.04238338 409.34358597 30.3470068 C409.34583204 33.87100581 409.34181124 37.39497452 409.33681019 40.91896969 C409.33245001 44.77401408 409.33390437 48.62905702 409.33462811 52.4841032 C409.33516024 59.97071829 409.33053831 67.4573214 409.32412678 74.94393341 C409.31693372 83.60188248 409.31613241 92.25982434 409.31534195 100.91777706 C409.31008916 123.78187401 409.29612808 146.6459683 409.28323746 169.51006222 C409.26261246 220.57756222 409.24198746 271.64506222 409.22073746 324.26006222 C267.98073746 324.26006222 126.74073746 324.26006222 -18.77926254 324.26006222 C-18.84113754 273.25443722 -18.90301254 222.24881222 -18.96676254 169.69756222 C-19.00773056 145.51688473 -19.00773056 145.51688473 -19.04952621 120.8477087 C-19.06307602 101.20159054 -19.06307602 101.20159054 -19.06559372 92.01190853 C-19.06839492 85.57718283 -19.0794146 79.14253498 -19.09598923 72.70783138 C-19.11507143 65.2886652 -19.12377361 57.86957387 -19.11959739 50.45038295 C-19.11778837 46.65429617 -19.12067739 42.85837675 -19.13690794 39.06232059 C-19.15417866 34.9983157 -19.14825157 30.93467581 -19.14002609 26.87064266 C-19.14876409 25.6851788 -19.15750208 24.49971495 -19.16650486 23.27832794 C-19.12448589 15.58082316 -18.52651768 10.42997199 -13.34176254 4.44756222 C-8.84161109 0.60596951 -5.93785912 0.00948444 0 0 Z M17.22073746 38.26006222 C16.08225376 40.53702962 16.09168057 41.78919831 16.08372307 44.31844711 C16.07864853 45.17277763 16.07357398 46.02710815 16.06834567 46.90732747 C16.06784791 47.85137352 16.06735015 48.79541957 16.06683731 49.76807308 C16.06245506 50.76672443 16.0580728 51.76537578 16.05355775 52.79428929 C16.04013434 56.16219526 16.03398298 59.53007505 16.02786636 62.89800167 C16.01996828 65.30394771 16.01169951 67.70989256 16.00308609 70.11583614 C15.97910158 77.3512699 15.96393431 84.58670544 15.95102602 91.82216504 C15.94731483 93.86515466 15.94334155 95.9081436 15.93927336 97.95113254 C15.91403892 110.63320283 15.89198212 123.31527418 15.87954521 135.99736404 C15.87661544 138.9354347 15.87365378 141.87350532 15.8706398 144.81157589 C15.86989375 145.54183395 15.8691477 146.27209202 15.86837904 147.02447911 C15.85572152 158.85802426 15.82249356 170.69141928 15.78083797 182.52489422 C15.7384379 194.66922597 15.71485247 206.81348081 15.70962465 218.9578864 C15.70620845 225.77854053 15.69442896 232.59896 15.66152191 239.41954136 C15.63062514 245.83402346 15.62509374 252.24820824 15.63690567 258.66275692 C15.63712724 261.01984525 15.62875392 263.37695205 15.61125183 265.73397541 C15.58868913 268.94684923 15.59679613 272.15822082 15.61273575 275.37110043 C15.59885366 276.30845431 15.58497157 277.2458082 15.57066882 278.21156675 C15.62037182 282.26490282 15.93609024 284.73749138 17.89754677 288.33843994 C23.30462042 291.46505955 28.89307719 290.94794797 34.99979019 290.89498043 C36.43598259 290.90074162 37.87216762 290.90868273 39.30833721 290.91861665 C43.25533543 290.93951413 47.2017302 290.92916203 51.14873075 290.91368556 C55.40512552 290.90238769 59.66141542 290.91982696 63.91778946 290.93358517 C72.25617716 290.95583889 80.59434006 290.95100692 88.93273664 290.93652196 C95.70843303 290.9252381 102.48406635 290.92369512 109.25976944 290.92914104 C110.70532641 290.93029029 110.70532641 290.93029029 112.18008655 290.93146276 C114.13772625 290.93306136 116.09536592 290.93468242 118.05300558 290.93632571 C136.41742336 290.95058947 154.78171642 290.93418067 173.14611375 290.90732388 C188.90965756 290.88498454 204.67301728 290.88886449 220.43655777 290.91191769 C238.73446211 290.93866463 257.0322571 290.94921611 275.33017826 290.93385637 C277.28068732 290.93226359 279.23119639 290.93069174 281.18170547 290.92914104 C282.14143735 290.92836967 283.10116922 290.92759829 284.08998388 290.92680354 C290.85892669 290.92248322 297.62780024 290.92978023 304.39673233 290.94153881 C312.6438713 290.95555008 320.89077227 290.95179287 329.1378839 290.92513509 C333.3471752 290.9119783 337.55606945 290.90687594 341.76535797 290.92338085 C345.61704551 290.93825537 349.46796714 290.93013457 353.31958497 290.90349309 C354.71452771 290.89789737 356.10953487 290.90077313 357.50443637 290.91287203 C365.36515843 291.06523211 365.36515843 291.06523211 372.54266644 288.33717823 C374.93096252 283.95770678 374.91119378 280.31189862 374.84892654 275.3912878 C374.85602093 274.39007318 374.86311532 273.38885856 374.87042469 272.3573041 C374.88804376 268.99832919 374.86987907 265.64050539 374.85184097 262.28154659 C374.85697826 259.87515389 374.86425809 257.46876495 374.87352371 255.06238461 C374.89014314 249.20249474 374.88338701 243.34290925 374.86543549 237.48304904 C374.85140918 232.72060106 374.84751673 227.95824359 374.85087776 223.19577694 C374.8513552 222.5179345 374.85183265 221.84009206 374.85232456 221.14170894 C374.85335089 219.76468024 374.85440625 218.38765157 374.85549032 217.01062292 C374.86405774 204.83442529 374.84738114 192.65838864 374.81766129 180.48223019 C374.78882372 168.66738275 374.78174023 156.85276723 374.79715347 145.03789425 C374.81391489 132.17196943 374.81795049 119.30615472 374.80044311 106.44022703 C374.79859873 105.0682672 374.796764 103.69630735 374.79493904 102.3243475 C374.79402695 101.64931898 374.79311486 100.97429046 374.79217513 100.27880654 C374.78656935 95.5221479 374.78987729 90.76554301 374.79648399 86.00888729 C374.80502328 79.60665042 374.79205911 73.20467277 374.76463509 66.80248737 C374.75773771 64.45025978 374.75766768 62.098001 374.76485062 59.74577427 C374.77351395 56.53975245 374.75764105 53.33477126 374.73540115 50.12883663 C374.7477623 48.72587534 374.7477623 48.72587534 374.76037318 47.2945714 C374.70630065 43.08384528 374.588473 40.84898515 372.31357098 37.20576382 C368.98360925 34.10990751 367.04646426 34.13345824 362.58499813 34.12584114 C361.37884466 34.1213833 360.17269119 34.11692545 358.92998761 34.11233252 C357.5794504 34.11242183 356.22891319 34.1126117 354.87837601 34.1128912 C353.45303141 34.10959351 352.02768775 34.10586814 350.60234529 34.10174972 C346.67157111 34.09171091 342.74081219 34.08800991 338.810027 34.08536041 C334.57610985 34.08146296 330.34220485 34.07188429 326.10829544 34.06314754 C315.87690999 34.04336798 305.64552353 34.03331534 295.41412374 34.02441975 C290.59964891 34.02003957 285.78517518 34.01467209 280.97070122 34.00943089 C264.97285026 33.99241762 248.975 33.97792229 232.97714138 33.97068214 C228.82388368 33.96877216 224.67062599 33.96685184 220.51736832 33.9648962 C219.48505816 33.96441246 218.452748 33.96392872 217.38915572 33.96343032 C200.65725604 33.95512568 183.92542774 33.92978188 167.19355925 33.89731552 C150.02745197 33.86427726 132.86138101 33.84623634 115.69524175 33.8430379 C106.05213166 33.84086988 96.40912569 33.83207849 86.76604652 33.80657673 C78.55548639 33.78491389 70.34505566 33.77679749 62.13447019 33.78654351 C57.94345922 33.791101 53.75271551 33.78911837 49.56174088 33.76978207 C45.72671275 33.75224042 41.89214862 33.75307414 38.05711619 33.76867936 C36.66812694 33.7710692 35.27910632 33.76666097 33.89016523 33.75485071 C32.0048338 33.73980978 30.11934453 33.75175119 28.23400021 33.76507759 C27.18591708 33.76410078 26.13783395 33.76312397 25.05799073 33.76211756 C21.48930719 34.38842996 19.8114044 35.7791125 17.22073746 38.26006222 Z " fill="#1F5A74" transform="translate(60.77926254272461,33.7399377822876)"/>
<path d="M0 0 C163.68 0 327.36 0 496 0 C496 28 496 28 493 33 C489.88833598 34.55583201 486.59041246 34.13924271 483.17503548 34.13142776 C482.35337656 34.1334804 481.53171765 34.13553303 480.68515998 34.13764787 C477.90208129 34.14335094 475.11905157 34.14185657 472.33596802 34.14044189 C470.33243912 34.14302363 468.32891073 34.14603625 466.32538307 34.1494453 C460.79645678 34.15754094 455.26754345 34.15930629 449.73861194 34.16004276 C443.78486451 34.16188886 437.83112389 34.16943389 431.87738037 34.17617798 C418.16899034 34.19048925 404.46060126 34.19629 390.75220546 34.20086992 C383.98159091 34.20320418 377.21097721 34.20680663 370.44036333 34.2105653 C347.27470715 34.22340157 324.10905146 34.23412114 300.9433918 34.2375679 C299.48866192 34.23778954 298.03393205 34.23801132 296.57920217 34.23823325 C295.12091259 34.2384539 293.66262301 34.23867438 292.20433342 34.2388947 C289.27863765 34.23933726 286.35294187 34.23978437 283.42724609 34.24023438 C282.33913898 34.24039846 282.33913898 34.24039846 281.22904991 34.24056586 C257.69848155 34.24419791 234.16794397 34.26012315 210.6373874 34.28342474 C185.77326641 34.30800201 160.90916302 34.32173974 136.04502952 34.32293582 C133.31738209 34.32310728 130.58973467 34.32332271 127.86208725 34.32357025 C126.85461459 34.3236539 126.85461459 34.3236539 125.82678894 34.32373925 C115.00255747 34.32489148 104.17835751 34.33592797 93.35413669 34.35045731 C82.48156608 34.36479958 71.60903794 34.36781894 60.73646058 34.36001733 C54.84238583 34.35609683 48.94841745 34.35710836 43.05435562 34.37107468 C37.66449844 34.38372995 32.27482846 34.38269039 26.88497184 34.37048396 C24.92938616 34.36851235 22.9737876 34.37167216 21.01822008 34.38032833 C18.37079782 34.39131009 15.72404927 34.38401252 13.0766468 34.3719368 C12.30801467 34.37953199 11.53938254 34.38712718 10.74745852 34.39495254 C7.59284072 34.36364379 5.35089844 34.19191461 2.55770957 32.66425395 C-4.66915608 24.94308442 0 4.62008224 0 0 Z " fill="#ABBBCC" transform="translate(8,444)"/>
<path d="M0 0 C1.24494232 -0.0112793 2.48988464 -0.02255859 3.77255249 -0.03417969 C5.14435048 -0.02640319 6.51614617 -0.01821056 7.88793945 -0.00964355 C9.33868105 -0.01506618 10.78941714 -0.02218964 12.24014282 -0.03088379 C16.1740789 -0.04910364 20.10759491 -0.04205537 24.04153824 -0.02936745 C28.16051608 -0.01923275 32.27945823 -0.02863443 36.3984375 -0.03491211 C43.31525116 -0.04218716 50.23189393 -0.03260461 57.14868164 -0.0135498 C65.14281377 0.00821876 73.13653782 0.00116729 81.13066006 -0.02085543 C87.99705972 -0.03901354 94.86333662 -0.04156577 101.72975254 -0.03110075 C105.82953644 -0.02486804 109.9291286 -0.02402395 114.02890015 -0.0372467 C117.88353938 -0.04881068 121.73765305 -0.04077006 125.59223557 -0.01766968 C127.00595604 -0.01238543 128.41972083 -0.0138916 129.83342361 -0.02272034 C131.7647467 -0.03366869 133.69616656 -0.01749754 135.62744141 0 C137.24789116 0.00226215 137.24789116 0.00226215 138.90107727 0.00457001 C142.51495117 0.62912159 144.18519822 2.00465941 146.8137207 4.50793457 C147.9397583 6.29077148 147.9397583 6.29077148 148.65063477 8.1114502 C149.06566254 9.14272034 149.06566254 9.14272034 149.48907471 10.19482422 C149.76636414 10.92721313 150.04365356 11.65960205 150.3293457 12.41418457 C150.63064392 13.17589966 150.93194214 13.93761475 151.24237061 14.72241211 C152.19671922 17.14573889 153.13009576 19.5765594 154.0637207 22.00793457 C154.70565187 23.64255949 155.34886823 25.27668031 155.9934082 26.91027832 C160.60339577 38.66663482 160.60339577 38.66663482 161.8137207 43.50793457 C99.7737207 43.50793457 37.7337207 43.50793457 -26.1862793 43.50793457 C-23.67958234 35.9878437 -21.00702095 28.60103743 -18.10766602 21.23132324 C-17.57417432 19.86750127 -17.04687903 18.50124009 -16.52563477 17.13269043 C-15.76267521 15.13081625 -14.98061149 13.13736988 -14.1940918 11.14465332 C-13.73663574 9.96604736 -13.27917969 8.78744141 -12.80786133 7.57312012 C-9.78597951 1.86102644 -6.36718751 0.00888862 0 0 Z " fill="#E0E9F3" transform="translate(188.186279296875,400.4920654296875)"/>
<path d="M0 0 C1.04608429 -0.00554901 2.09216858 -0.01109802 3.16995239 -0.01681519 C6.62548727 -0.0286194 10.0797132 -0.00432683 13.53515625 0.02148438 C15.93741801 0.02319531 18.33968164 0.02312997 20.74194336 0.0213623 C25.77573516 0.023016 30.80908187 0.04172412 35.84277344 0.07324219 C42.29591237 0.11291938 48.74846818 0.11728761 55.20170593 0.10977936 C60.16196029 0.10671015 65.12208349 0.11882855 70.08230591 0.13591003 C72.46175311 0.14294249 74.84121517 0.14606427 77.22067261 0.1452179 C80.54582596 0.14701512 83.87028002 0.16839162 87.1953125 0.1953125 C88.17936066 0.1923819 89.16340881 0.18945129 90.17727661 0.18643188 C95.09415412 0.24786628 98.65409935 0.31836442 102.59765625 3.61523438 C104.12612286 6.6721676 103.8300807 9.24507985 103.59765625 12.61523438 C101.83750494 15.80027007 101.09874709 16.4482041 97.59765625 17.61523438 C96.12433965 17.71409829 94.64703359 17.75868186 93.17044067 17.76913452 C92.26481384 17.77773499 91.35918701 17.78633545 90.42611694 17.79519653 C88.93925888 17.80158646 88.93925888 17.80158646 87.42236328 17.80810547 C86.37657104 17.81628296 85.33077881 17.82446045 84.2532959 17.83288574 C80.78735936 17.85772969 77.32146368 17.87425119 73.85546875 17.88867188 C72.67294399 17.89399555 71.49041924 17.89931923 70.27206039 17.90480423 C64.01585284 17.93152845 57.75966522 17.95090777 51.50341797 17.96533203 C45.03445571 17.98199938 38.56600096 18.02679736 32.09723091 18.07770348 C27.12844235 18.11131347 22.15977534 18.12290251 17.19088364 18.12855911 C14.80580633 18.13528629 12.42073742 18.15054609 10.03577042 18.17444992 C6.70066806 18.20597578 3.36694977 18.20615685 0.03173828 18.19873047 C-0.95545197 18.2151358 -1.94264221 18.23154114 -2.95974731 18.2484436 C-7.57910748 18.20627585 -9.71815733 18.12461988 -13.51541138 15.29751587 C-15.40234375 12.61523438 -15.40234375 12.61523438 -16.02734375 9.11523438 C-14.39331654 -0.03531799 -7.78143987 -0.10488017 0 0 Z " fill="#EA6273" transform="translate(220.40234375,238.384765625)"/>
<path d="M0 0 C1.44967415 -0.0131424 1.44967415 -0.0131424 2.92863464 -0.02655029 C6.11962946 -0.04853556 9.30923551 -0.03399285 12.50024414 -0.01708984 C14.7207516 -0.02045849 16.94125727 -0.0253115 19.16175842 -0.03158569 C23.81472332 -0.03895611 28.46720812 -0.02824659 33.12011719 -0.00488281 C39.08014417 0.02358784 45.03904457 0.00721199 50.99903011 -0.02274513 C55.58448244 -0.04082735 60.16966844 -0.03505541 64.75512886 -0.02210617 C66.95233862 -0.01877388 69.14957267 -0.02285296 71.34675407 -0.03450394 C74.42062113 -0.04722543 77.49267406 -0.02781528 80.56640625 0 C81.92487671 -0.01518173 81.92487671 -0.01518173 83.31079102 -0.03067017 C87.5898267 0.04094421 90.49311338 0.30662284 93.92799377 2.9960022 C96.34790039 5.64697266 96.34790039 5.64697266 96.84790039 8.70947266 C96.36788425 11.52956751 96.00385708 13.32863329 94.34790039 15.64697266 C91.51132245 17.35702507 89.39034283 17.89924913 86.09741211 17.91439819 C84.83571198 17.92719315 84.83571198 17.92719315 83.54852295 17.94024658 C82.63411438 17.93934021 81.71970581 17.93843384 80.77758789 17.9375 C79.8080719 17.94421722 78.83855591 17.95093445 77.83966064 17.95785522 C74.63402182 17.97685761 71.42859203 17.98076025 68.22290039 17.98291016 C65.99617425 17.98933537 63.76944896 17.99606353 61.54272461 18.00308228 C56.87554974 18.01505983 52.20844892 18.01876249 47.54125977 18.01757812 C41.55541802 18.01737465 35.57004952 18.04470456 29.58432007 18.07912254 C24.98614308 18.10133571 20.38808112 18.10541742 15.78985596 18.10435867 C13.58260463 18.10672199 11.37535047 18.11558637 9.16815186 18.13102341 C6.08449901 18.15057471 3.00188168 18.14488836 -0.08178711 18.1328125 C-0.99619568 18.14405151 -1.91060425 18.15529053 -2.85272217 18.16687012 C-9.0423767 18.10513809 -9.0423767 18.10513809 -12.18774414 15.74160767 C-14.66835416 12.19330761 -15.16473535 10.00437645 -14.65209961 5.64697266 C-10.47563151 -0.13598251 -6.60197578 -0.07361655 0 0 Z " fill="#81EAFD" transform="translate(287.652099609375,272.35302734375)"/>
<path d="M0 0 C1.08632469 -0.0131424 1.08632469 -0.0131424 2.19459534 -0.02655029 C4.57891471 -0.04848486 6.96136626 -0.03401489 9.34570312 -0.01708984 C11.00810094 -0.02045974 12.67049635 -0.02531381 14.33288574 -0.03158569 C17.81314605 -0.03894889 21.29276374 -0.02827001 24.77294922 -0.00488281 C29.22881978 0.02360546 33.68318459 0.0071984 38.13899994 -0.02274513 C41.57065122 -0.04083354 45.00194688 -0.03505318 48.43360901 -0.02210617 C50.07621947 -0.01877638 51.71886248 -0.02284425 53.36143494 -0.03450394 C55.65979217 -0.0472392 57.95572887 -0.02780343 60.25390625 0 C61.56008911 0.00397797 62.86627197 0.00795593 64.21203613 0.01205444 C68.50086987 0.80945557 69.98751425 2.23405378 72.62695312 5.64697266 C73.18945312 9.20947266 73.18945312 9.20947266 72.62695312 12.64697266 C70.75986808 15.01194705 69.30633882 16.30727981 66.62695312 17.64697266 C64.34601509 17.75968674 62.06172961 17.8063746 59.77807617 17.82397461 C59.07380493 17.83054581 58.36953369 17.837117 57.6439209 17.84388733 C55.30883684 17.86362817 52.97381713 17.8752848 50.63867188 17.88525391 C49.44271865 17.8913672 49.44271865 17.8913672 48.22260475 17.89760399 C44.00232832 17.91846842 39.78208444 17.93276831 35.56176758 17.94213867 C31.20362795 17.953202 26.84599907 17.98759949 22.48803997 18.02731037 C19.13626662 18.05346249 15.7846152 18.06182925 12.43274879 18.06542015 C10.8263892 18.07029004 9.2200352 18.08191559 7.61377525 18.10045815 C5.36344383 18.12482026 3.11443673 18.12389069 0.86401367 18.11694336 C-1.05553886 18.12574272 -1.05553886 18.12574272 -3.01387024 18.13471985 C-6.94846599 17.5634227 -8.58083989 16.41991789 -11.37304688 13.64697266 C-12.81735542 10.75835556 -12.74993193 8.85049564 -12.37304688 5.64697266 C-8.60599421 0.79112651 -6.04767275 0.01841812 0 0 Z " fill="#E2B933" transform="translate(140.373046875,204.35302734375)"/>
<path d="M0 0 C0.73382401 -0.00861557 1.46764801 -0.01723114 2.22370911 -0.02610779 C4.64567497 -0.0487814 7.06648496 -0.04202665 9.48852539 -0.03295898 C11.17477258 -0.0381943 12.86101683 -0.04447044 14.54725647 -0.05174255 C18.08047266 -0.06214952 21.61328619 -0.05758174 25.14648438 -0.04296875 C29.67071539 -0.02578723 34.19367567 -0.04926575 38.71776485 -0.08445835 C42.20000092 -0.10643784 45.68193323 -0.10498952 49.164217 -0.09669304 C50.83195959 -0.09587367 52.49972452 -0.10273431 54.16740227 -0.11746407 C56.50171438 -0.13491987 58.83374761 -0.12036234 61.16796875 -0.09765625 C62.1975621 -0.11519455 62.1975621 -0.11519455 63.24795532 -0.13308716 C67.07999353 -0.05738804 68.58120822 0.4781701 71.58839417 2.94178772 C73.64868164 5.53344727 73.64868164 5.53344727 74.09399414 7.63110352 C73.98829102 8.27950195 73.88258789 8.92790039 73.77368164 9.59594727 C73.69375977 10.24692383 73.61383789 10.89790039 73.53149414 11.56860352 C72.18830164 14.55809833 70.37096091 15.73979068 67.64868164 17.53344727 C64.30296326 18.02792358 64.30296326 18.02792358 60.44335938 18.01928711 C59.73704376 18.0230838 59.03072815 18.02688049 58.30300903 18.03079224 C55.97897276 18.03817419 53.65619965 18.01685229 51.33227539 17.99438477 C49.71232754 17.99199904 48.09237689 17.99109529 46.47242737 17.99160767 C43.08219 17.98848384 39.69237678 17.97194979 36.30224609 17.94506836 C31.95878175 17.91106186 27.61578247 17.90344082 23.27220058 17.90495872 C19.92901682 17.90441469 16.5859345 17.89344256 13.2427845 17.87895584 C11.64122345 17.87259674 10.03965092 17.86865102 8.43807793 17.86716843 C6.20005616 17.86282743 3.96252542 17.84531064 1.72460938 17.82397461 C0.45173569 17.81635101 -0.821138 17.80872742 -2.13258362 17.8008728 C-5.18850089 17.5469748 -6.85992395 17.26471121 -9.35131836 15.53344727 C-11.49422855 12.31908198 -11.65157627 10.35918117 -11.81225586 6.56860352 C-10.41666997 0.406737 -5.42779373 -0.0514528 0 0 Z " fill="#E66273" transform="translate(182.351318359375,170.466552734375)"/>
<path d="M0 0 C1.28160507 -0.01583633 2.56321014 -0.03167267 3.88365173 -0.04798889 C5.27473313 -0.04414704 6.66581166 -0.03910778 8.05688477 -0.03295898 C9.49268496 -0.03819773 10.92848171 -0.04447514 12.36427307 -0.05174255 C15.36947861 -0.0621355 18.37421032 -0.05760232 21.37939453 -0.04296875 C25.22089126 -0.02578926 29.06089103 -0.04926895 32.90222073 -0.08445835 C35.86637689 -0.10647506 38.83017727 -0.10498067 41.79438972 -0.09669304 C43.21011051 -0.09587569 44.62585799 -0.10269771 46.041502 -0.11746407 C58.46737518 -0.22720715 58.46737518 -0.22720715 62.44384766 2.88134766 C64.56079102 5.53344727 64.56079102 5.53344727 65.06079102 8.59594727 C64.58077487 11.41604212 64.21674771 13.2151079 62.56079102 15.53344727 C59.1283447 17.76414207 56.1634021 17.80772493 52.12744141 17.85571289 C50.17004784 17.88453552 50.17004784 17.88453552 48.17311096 17.91394043 C46.75156353 17.92363543 45.33000795 17.93219333 43.90844727 17.93969727 C42.44640601 17.95120802 40.98436479 17.96272339 39.52232361 17.97424316 C36.4600179 17.99522654 33.39781666 18.00693642 30.33544922 18.01391602 C26.41642339 18.0248951 22.49878411 18.07297971 18.58019352 18.12985992 C15.56123339 18.16715117 12.54260657 18.17752558 9.52343559 18.18058777 C8.07891677 18.1866309 6.63440314 18.2026555 5.19011116 18.22895813 C-6.01257993 18.41845791 -6.01257993 18.41845791 -9.45852661 16.28076172 C-11.93811169 13.50860998 -12.43663142 11.60819663 -12.56420898 7.90844727 C-10.43618534 1.52437634 -6.40384671 0.03526799 0 0 Z " fill="#E96273" transform="translate(191.439208984375,272.466552734375)"/>
<path d="M0 0 C2.5 1.5 2.5 1.5 4 4 C4.77786394 7.47046989 5.04236184 8.7335613 4 12 C1.90251916 14.79944337 -0.35943829 17.23448769 -2.8359375 19.703125 C-4.78339889 21.77010568 -5.91683663 23.40516908 -7 26 C-6.37351562 26.61488281 -5.74703125 27.22976562 -5.1015625 27.86328125 C-4.28429687 28.67152344 -3.46703125 29.47976562 -2.625 30.3125 C-1.81289062 31.11300781 -1.00078125 31.91351563 -0.1640625 32.73828125 C2.89792349 35.9384435 3.94768871 37.45073149 4.375 41.9375 C4.28704817 44.92786214 4.08955601 45.86566599 2.375 48.4375 C-0.61178724 50.4024916 -2.40987366 51 -6 51 C-11.56176166 47.88671068 -15.793702 43.50526831 -20.25 39 C-21.32894531 37.93265625 -21.32894531 37.93265625 -22.4296875 36.84375 C-23.11804688 36.1528125 -23.80640625 35.461875 -24.515625 34.75 C-25.13727539 34.12609375 -25.75892578 33.5021875 -26.39941406 32.859375 C-28.82488872 30.04174002 -29.97753151 27.98861358 -30.0625 24.25 C-28.48653479 19.42940054 -25.50887236 16.5859253 -22 13 C-21.51402344 12.50032715 -21.02804688 12.0006543 -20.52734375 11.48583984 C-8.23233049 -1.12259052 -8.23233049 -1.12259052 0 0 Z " fill="#F7F9F9" transform="translate(132,103)"/>
<path d="M0 0 C4.35790231 1.21186602 7.03455332 4.43176099 10.12109375 7.58984375 C11.23905705 8.68806226 12.35900485 9.78426268 13.48046875 10.87890625 C23.82666932 21.04411547 23.82666932 21.04411547 24.62109375 25.21484375 C23.84739199 30.43733063 20.76174199 32.92563145 17.12109375 36.58984375 C16.02463305 37.71213551 14.92828751 38.83453979 13.83203125 39.95703125 C3.49619414 50.45676952 3.49619414 50.45676952 -1.75390625 50.96484375 C-5.07172148 50.91055223 -5.68889266 50.74660496 -8.37890625 48.52734375 C-10.28730142 44.79006988 -10.40428634 42.75785914 -9.87890625 38.58984375 C-8.20106025 36.08068157 -6.11728152 34.16133597 -3.87890625 32.15234375 C-3.3065625 31.61158203 -2.73421875 31.07082031 -2.14453125 30.51367188 C-0.73802719 29.18921388 0.68954174 27.88718776 2.12109375 26.58984375 C0.59550315 22.93843019 -1.60371534 20.68866263 -4.44140625 17.96484375 C-9.73735737 12.86378363 -9.73735737 12.86378363 -10.19140625 8.77734375 C-9.57936959 2.53456983 -6.45301369 -0.48545608 0 0 Z " fill="#FBFCFC" transform="translate(214.87890625,102.41015625)"/>
<path d="M0 0 C1.0686731 -0.00241196 2.13734619 -0.00482391 3.23840332 -0.00730896 C5.49442257 -0.00633089 7.75046594 0.00705289 10.00634766 0.03198242 C13.45688518 0.06628829 16.90486113 0.05263832 20.35546875 0.03320312 C22.54949005 0.04010174 24.74350476 0.04977427 26.9375 0.0625 C28.48298523 0.0550602 28.48298523 0.0550602 30.05969238 0.04747009 C34.47550412 0.11997421 37.2228956 0.19411605 41.09179688 2.44946289 C43.73426147 5.51778774 44.0392353 7.61124441 43.96875 11.62890625 C41.88249661 15.05632254 40.7943189 16.35371662 36.96875 17.62890625 C35.41569891 17.74496998 33.85836729 17.80789645 32.30126953 17.83764648 C30.88432297 17.86658241 30.88432297 17.86658241 29.43875122 17.89610291 C25.12896659 17.95389418 20.81934587 18.00309148 16.50927734 18.03393555 C14.23568566 18.05555011 11.96217795 18.0896933 9.68896484 18.13647461 C6.40945316 18.20334029 3.13165885 18.23091012 -0.1484375 18.25 C-1.16316132 18.27783066 -2.17788513 18.30566132 -3.22335815 18.33433533 C-10.08032325 18.31432904 -10.08032325 18.31432904 -12.79351807 16.3586731 C-14.9685243 13.87081295 -15.99658246 11.79877718 -16.65625 8.56640625 C-14.74778988 -0.4033563 -7.57278342 -0.09744663 0 0 Z " fill="#E3BA33" transform="translate(144.03125,238.37109375)"/>
<path d="M0 0 C3.56986339 0.80427752 5.00990416 2.46360469 6.9765625 5.4453125 C6.72763635 11.33337325 4.66418491 15.79049532 2.046875 20.93359375 C1.65587616 21.71800339 1.26487732 22.50241302 0.86203003 23.31059265 C0.03802756 24.95762277 -0.79090983 26.60219228 -1.62451172 28.24438477 C-2.900108 30.76110837 -4.15608854 33.28694514 -5.41015625 35.81445312 C-6.2149985 37.41724332 -7.02094974 39.01947721 -7.828125 40.62109375 C-8.20323212 41.37626785 -8.57833923 42.13144196 -8.96481323 42.90950012 C-10.71337543 46.32904165 -11.77094769 48.27698596 -15.0234375 50.4453125 C-21.92754709 51.10284675 -21.92754709 51.10284675 -25.5234375 48.9453125 C-27.60018014 45.48407476 -27.50724896 42.34640866 -27.0234375 38.4453125 C-26.11305824 35.59613358 -24.82495592 33.01611215 -23.4453125 30.3671875 C-23.07746643 29.63332825 -22.70962036 28.89946899 -22.33062744 28.14337158 C-21.55466124 26.60345536 -20.77097578 25.06740686 -19.97998047 23.53515625 C-18.77402729 21.19645628 -17.59432858 18.84588868 -16.41796875 16.4921875 C-15.6577571 14.99142313 -14.89608741 13.49139625 -14.1328125 11.9921875 C-13.78160339 11.29422058 -13.43039429 10.59625366 -13.06854248 9.87713623 C-9.84586839 3.67363654 -7.55345781 -0.42435156 0 0 Z " fill="#FBFCFC" transform="translate(181.0234375,102.5546875)"/>
<path d="M0 0 C0.69371201 0.00374634 1.38742401 0.00749268 2.10215759 0.01135254 C3.56219848 0.0247443 5.02217058 0.05247784 6.48168945 0.09375 C8.71178136 0.15616429 10.93904228 0.1757055 13.16992188 0.1875 C25.32167278 0.34416107 25.32167278 0.34416107 28.65234375 2.65625 C30.99403139 6.16878146 31.14858052 7.52094356 30.65234375 11.65625 C28.85240601 14.35615662 27.56857075 16.1981365 24.65234375 17.65625 C20.28222092 17.91465788 15.90828677 17.92728382 11.53149414 17.95141602 C9.35824136 17.96860449 7.18652029 18.01248807 5.01367188 18.05664062 C3.62631325 18.06677026 2.23894171 18.07528552 0.8515625 18.08203125 C-0.40825439 18.09661377 -1.66807129 18.11119629 -2.96606445 18.1262207 C-6.95222202 17.57222797 -8.56744912 16.52032751 -11.34765625 13.65625 C-12.47265625 10.28125 -12.47265625 10.28125 -12.34765625 6.65625 C-8.78810414 1.12114858 -6.79640699 -0.09855406 0 0 Z " fill="#80E9FC" transform="translate(353.34765625,238.34375)"/>
<path d="M0 0 C0.71590805 -0.00241196 1.4318161 -0.00482391 2.16941833 -0.00730896 C3.67639734 -0.00633321 5.18341339 0.00699583 6.69018555 0.03198242 C8.99326432 0.06636401 11.29251711 0.05261545 13.59570312 0.03320312 C15.06381836 0.04010048 16.53192374 0.04977188 18 0.0625 C18.6855043 0.05754013 19.37100861 0.05258026 20.07728577 0.04747009 C23.45800855 0.13057251 25.17357386 0.42460305 27.86499023 2.53930664 C30.03479736 5.42979367 30.001562 7.22510056 29.83203125 10.7265625 C29.22463798 13.62656764 27.76859583 14.91199296 25.43359375 16.62890625 C21.15223305 18.7695866 15.49222911 17.8969735 10.73999023 17.92407227 C8.63914323 17.94125859 6.53988174 17.98514224 4.43945312 18.02929688 C3.0976678 18.03942677 1.75586911 18.04794195 0.4140625 18.0546875 C-1.41282104 18.07656128 -1.41282104 18.07656128 -3.27661133 18.09887695 C-7.17450378 17.54203517 -8.79315327 16.3658576 -11.56640625 13.62890625 C-13.0107148 10.74028916 -12.94329131 8.83242924 -12.56640625 5.62890625 C-8.86649204 0.82945807 -5.83643174 -0.11321564 0 0 Z " fill="#E0B833" transform="translate(123.56640625,170.37109375)"/>
<path d="M0 0 C1.04091797 0.00580078 2.08183594 0.01160156 3.15429688 0.01757812 C11.91984548 0.15850334 11.91984548 0.15850334 15.4375 2.4375 C17.93781654 6.18797482 17.97353554 7.99606266 17.4375 12.4375 C15.6640625 15.12890625 15.6640625 15.12890625 12.4375 17.4375 C8.40399949 18.15658951 4.46117212 18.08983266 0.375 18 C-0.71361328 18.01095703 -1.80222656 18.02191406 -2.92382812 18.03320312 C-10.94011904 17.95920659 -10.94011904 17.95920659 -13.84155273 15.52709961 C-15.9006764 13.02688121 -16.50714005 11.85269961 -16.9375 8.625 C-16.5625 5.4375 -16.5625 5.4375 -14.76171875 2.765625 C-9.99598144 -0.70248176 -5.73845557 -0.18189014 0 0 Z " fill="#E1B833" transform="translate(144.5625,272.5625)"/>
</svg>
